Bevan.ufo
<glyph name="asterisk" format="1">
  <advance width="1243"/>
  <unicode hex="002A"/>
  <outline>
    <contour>
      <point x="46" y="1328" type="line"/>
      <point x="31" y="1305"/>
      <point x="22" y="1280"/>
      <point x="20" y="1253" type="curve" smooth="yes"/>
      <point x="18" y="1226"/>
      <point x="24" y="1198"/>
      <point x="39" y="1169" type="curve" smooth="yes"/>
      <point x="54" y="1140"/>
      <point x="77" y="1115"/>
      <point x="108" y="1094" type="curve" smooth="yes"/>
      <point x="140" y="1073"/>
      <point x="179" y="1054"/>
      <point x="224" y="1037" type="curve" smooth="yes"/>
      <point x="269" y="1020"/>
      <point x="323" y="1002"/>
      <point x="386" y="983" type="curve" smooth="yes"/>
      <point x="449" y="964"/>
      <point x="490" y="951"/>
      <point x="509" y="944" type="curve"/>
      <point x="488" y="937"/>
      <point x="446" y="924"/>
      <point x="384" y="906" type="curve" smooth="yes"/>
      <point x="322" y="888"/>
      <point x="268" y="870"/>
      <point x="222" y="852" type="curve" smooth="yes"/>
      <point x="176" y="834"/>
      <point x="137" y="815"/>
      <point x="105" y="794" type="curve" smooth="yes"/>
      <point x="74" y="773"/>
      <point x="51" y="748"/>
      <point x="36" y="719" type="curve" smooth="yes"/>
      <point x="21" y="690"/>
      <point x="15" y="662"/>
      <point x="17" y="635" type="curve" smooth="yes"/>
      <point x="19" y="608"/>
      <point x="28" y="583"/>
      <point x="43" y="560" type="curve" smooth="yes"/>
      <point x="66" y="523"/>
      <point x="99" y="500"/>
      <point x="141" y="491" type="curve" smooth="yes"/>
      <point x="183" y="482"/>
      <point x="230" y="493"/>
      <point x="281" y="523" type="curve"/>
      <point x="303" y="538"/>
      <point x="328" y="558"/>
      <point x="355" y="584" type="curve" smooth="yes"/>
      <point x="382" y="610"/>
      <point x="402" y="630"/>
      <point x="415" y="645" type="curve" smooth="yes"/>
      <point x="428" y="660"/>
      <point x="452" y="689"/>
      <point x="487" y="731" type="curve" smooth="yes"/>
      <point x="522" y="773"/>
      <point x="541" y="796"/>
      <point x="544" y="800" type="curve"/>
      <point x="540" y="787"/>
      <point x="531" y="757"/>
      <point x="517" y="711" type="curve" smooth="yes"/>
      <point x="503" y="665"/>
      <point x="493" y="630"/>
      <point x="487" y="606" type="curve" smooth="yes"/>
      <point x="481" y="582"/>
      <point x="475" y="552"/>
      <point x="468" y="516" type="curve" smooth="yes"/>
      <point x="461" y="480"/>
      <point x="458" y="449"/>
      <point x="458" y="422" type="curve" smooth="yes"/>
      <point x="458" y="366"/>
      <point x="474" y="322"/>
      <point x="506" y="290" type="curve" smooth="yes"/>
      <point x="538" y="258"/>
      <point x="576" y="242"/>
      <point x="619" y="242" type="curve" smooth="yes"/>
      <point x="662" y="242"/>
      <point x="700" y="258"/>
      <point x="732" y="290" type="curve" smooth="yes"/>
      <point x="764" y="322"/>
      <point x="780" y="366"/>
      <point x="780" y="422" type="curve" smooth="yes"/>
      <point x="780" y="449"/>
      <point x="777" y="480"/>
      <point x="770" y="516" type="curve" smooth="yes"/>
      <point x="763" y="552"/>
      <point x="757" y="581"/>
      <point x="751" y="602" type="curve" smooth="yes"/>
      <point x="745" y="623"/>
      <point x="735" y="658"/>
      <point x="720" y="708" type="curve" smooth="yes"/>
      <point x="705" y="758"/>
      <point x="696" y="787"/>
      <point x="693" y="796" type="curve"/>
      <point x="701" y="787"/>
      <point x="721" y="763"/>
      <point x="753" y="725" type="curve" smooth="yes"/>
      <point x="785" y="687"/>
      <point x="809" y="659"/>
      <point x="825" y="641" type="curve" smooth="yes"/>
      <point x="841" y="623"/>
      <point x="862" y="601"/>
      <point x="889" y="576" type="curve" smooth="yes"/>
      <point x="916" y="551"/>
      <point x="940" y="531"/>
      <point x="962" y="516" type="curve"/>
      <point x="1013" y="486"/>
      <point x="1060" y="475"/>
      <point x="1102" y="484" type="curve" smooth="yes"/>
      <point x="1144" y="493"/>
      <point x="1177" y="516"/>
      <point x="1200" y="553" type="curve" smooth="yes"/>
      <point x="1215" y="576"/>
      <point x="1224" y="601"/>
      <point x="1226" y="628" type="curve" smooth="yes"/>
      <point x="1228" y="655"/>
      <point x="1222" y="683"/>
      <point x="1207" y="712" type="curve" smooth="yes"/>
      <point x="1192" y="741"/>
      <point x="1169" y="766"/>
      <point x="1138" y="787" type="curve" smooth="yes"/>
      <point x="1106" y="808"/>
      <point x="1067" y="827"/>
      <point x="1021" y="845" type="curve" smooth="yes"/>
      <point x="975" y="863"/>
      <point x="921" y="881"/>
      <point x="859" y="899" type="curve" smooth="yes"/>
      <point x="797" y="917"/>
      <point x="755" y="930"/>
      <point x="733" y="938" type="curve"/>
      <point x="752" y="945"/>
      <point x="793" y="958"/>
      <point x="856" y="977" type="curve" smooth="yes"/>
      <point x="919" y="996"/>
      <point x="973" y="1014"/>
      <point x="1019" y="1031" type="curve" smooth="yes"/>
      <point x="1065" y="1048"/>
      <point x="1104" y="1067"/>
      <point x="1136" y="1088" type="curve" smooth="yes"/>
      <point x="1167" y="1109"/>
      <point x="1190" y="1134"/>
      <point x="1205" y="1163" type="curve" smooth="yes"/>
      <point x="1220" y="1192"/>
      <point x="1226" y="1220"/>
      <point x="1224" y="1247" type="curve" smooth="yes"/>
      <point x="1222" y="1274"/>
      <point x="1213" y="1299"/>
      <point x="1198" y="1322" type="curve" smooth="yes"/>
      <point x="1175" y="1359"/>
      <point x="1142" y="1382"/>
      <point x="1100" y="1391" type="curve" smooth="yes"/>
      <point x="1058" y="1400"/>
      <point x="1011" y="1389"/>
      <point x="960" y="1359" type="curve"/>
      <point x="938" y="1344"/>
      <point x="914" y="1324"/>
      <point x="888" y="1299" type="curve" smooth="yes"/>
      <point x="862" y="1274"/>
      <point x="840" y="1252"/>
      <point x="823" y="1233" type="curve" smooth="yes"/>
      <point x="806" y="1214"/>
      <point x="783" y="1187"/>
      <point x="753" y="1151" type="curve" smooth="yes"/>
      <point x="723" y="1115"/>
      <point x="703" y="1091"/>
      <point x="693" y="1080" type="curve"/>
      <point x="697" y="1093"/>
      <point x="704" y="1116"/>
      <point x="714" y="1150" type="curve" smooth="yes"/>
      <point x="724" y="1184"/>
      <point x="732" y="1211"/>
      <point x="738" y="1231" type="curve" smooth="yes"/>
      <point x="744" y="1251"/>
      <point x="750" y="1275"/>
      <point x="757" y="1304" type="curve" smooth="yes"/>
      <point x="764" y="1333"/>
      <point x="769" y="1360"/>
      <point x="772" y="1385" type="curve" smooth="yes"/>
      <point x="775" y="1410"/>
      <point x="777" y="1433"/>
      <point x="777" y="1454" type="curve" smooth="yes"/>
      <point x="777" y="1510"/>
      <point x="761" y="1554"/>
      <point x="729" y="1586" type="curve" smooth="yes"/>
      <point x="697" y="1618"/>
      <point x="659" y="1634"/>
      <point x="616" y="1634" type="curve" smooth="yes"/>
      <point x="573" y="1634"/>
      <point x="535" y="1618"/>
      <point x="503" y="1586" type="curve" smooth="yes"/>
      <point x="471" y="1554"/>
      <point x="455" y="1510"/>
      <point x="455" y="1454" type="curve" smooth="yes"/>
      <point x="455" y="1427"/>
      <point x="458" y="1396"/>
      <point x="465" y="1360" type="curve" smooth="yes"/>
      <point x="472" y="1324"/>
      <point x="478" y="1295"/>
      <point x="484" y="1272" type="curve" smooth="yes"/>
      <point x="490" y="1249"/>
      <point x="500" y="1214"/>
      <point x="514" y="1166" type="curve" smooth="yes"/>
      <point x="528" y="1118"/>
      <point x="537" y="1089"/>
      <point x="540" y="1078" type="curve"/>
      <point x="533" y="1086"/>
      <point x="513" y="1109"/>
      <point x="481" y="1148" type="curve" smooth="yes"/>
      <point x="449" y="1187"/>
      <point x="425" y="1215"/>
      <point x="410" y="1232" type="curve" smooth="yes"/>
      <point x="395" y="1249"/>
      <point x="374" y="1270"/>
      <point x="347" y="1296" type="curve" smooth="yes"/>
      <point x="320" y="1322"/>
      <point x="296" y="1342"/>
      <point x="274" y="1357" type="curve"/>
      <point x="223" y="1387"/>
      <point x="176" y="1398"/>
      <point x="134" y="1389" type="curve" smooth="yes"/>
      <point x="92" y="1380"/>
      <point x="59" y="1357"/>
      <point x="36" y="1320" type="curve"/>
    </contour>
  </outline>
</glyph>
<glyph name="comma" format="1">
  <advance width="596"/>
  <unicode hex="002C"/>
  <outline>
    <contour>
      <point x="37" y="-448" type="curve"/>
      <point x="37" y="-223" type="line"/>
      <point x="36" y="-224" type="line"/>
      <point x="66" y="-224"/>
      <point x="92" y="-222"/>
      <point x="114" y="-218" type="curve" smooth="yes"/>
      <point x="136" y="-214"/>
      <point x="154" y="-207"/>
      <point x="168" y="-197" type="curve" smooth="yes"/>
      <point x="182" y="-187"/>
      <point x="193" y="-176"/>
      <point x="201" y="-165" type="curve" smooth="yes"/>
      <point x="209" y="-154"/>
      <point x="215" y="-139"/>
      <point x="219" y="-119" type="curve" smooth="yes"/>
      <point x="223" y="-99"/>
      <point x="225" y="-81"/>
      <point x="226" y="-66" type="curve" smooth="yes"/>
      <point x="227" y="-51"/>
      <point x="227" y="-29"/>
      <point x="227" y="-1" type="curve"/>
      <point x="38" y="-1" type="line"/>
      <point x="38" y="365" type="line"/>
      <point x="548" y="365" type="line"/>
      <point x="564" y="262"/>
      <point x="572" y="170"/>
      <point x="572" y="88" type="curve" smooth="yes"/>
      <point x="572" y="-97"/>
      <point x="529" y="-233"/>
      <point x="442" y="-319" type="curve" smooth="yes"/>
      <point x="355" y="-405"/>
      <point x="220" y="-448"/>
    </contour>
  </outline>
</glyph>
<glyph name="period" format="1">
  <advance width="617"/>
  <unicode hex="002E"/>
  <outline>
    <contour>
      <point x="305" y="-27" type="line"/>
      <point x="386" y="-27"/>
      <point x="454" y="-5"/>
      <point x="509" y="40" type="curve" smooth="yes"/>
      <point x="564" y="85"/>
      <point x="591" y="146"/>
      <point x="591" y="223" type="curve" smooth="yes"/>
      <point x="591" y="298"/>
      <point x="564" y="358"/>
      <point x="511" y="402" type="curve" smooth="yes"/>
      <point x="458" y="446"/>
      <point x="389" y="468"/>
      <point x="304" y="468" type="curve" smooth="yes"/>
      <point x="223" y="468"/>
      <point x="156" y="446"/>
      <point x="104" y="402" type="curve" smooth="yes"/>
      <point x="52" y="358"/>
      <point x="26" y="298"/>
      <point x="26" y="223" type="curve" smooth="yes"/>
      <point x="26" y="146"/>
      <point x="52" y="85"/>
      <point x="105" y="40" type="curve" smooth="yes"/>
      <point x="158" y="-5"/>
      <point x="224" y="-28"/>
      <point x="303" y="-28" type="curve"/>
    </contour>
  </outline>
</glyph>
<glyph name="two" format="1">
  <advance width="1247"/>
  <unicode hex="0032"/>
  <outline>
    <contour>
      <point x="1217" y="0" type="line"/>
      <point x="74" y="0" type="line"/>
      <point x="74" y="303" type="line"/>
      <point x="203" y="352"/>
      <point x="310" y="413"/>
      <point x="396" y="486" type="curve" smooth="yes"/>
      <point x="434" y="518"/>
      <point x="463" y="544"/>
      <point x="484" y="565" type="curve" smooth="yes"/>
      <point x="505" y="586"/>
      <point x="527" y="612"/>
      <point x="551" y="643" type="curve" smooth="yes"/>
      <point x="575" y="674"/>
      <point x="592" y="707"/>
      <point x="603" y="742" type="curve" smooth="yes"/>
      <point x="614" y="777"/>
      <point x="619" y="815"/>
      <point x="619" y="857" type="curve"/>
      <point x="616" y="908"/>
      <point x="601" y="949"/>
      <point x="574" y="981" type="curve" smooth="yes"/>
      <point x="547" y="1013"/>
      <point x="516" y="1029"/>
      <point x="481" y="1029" type="curve" smooth="yes"/>
      <point x="438" y="1029"/>
      <point x="405" y="1016"/>
      <point x="382" y="989" type="curve" smooth="yes"/>
      <point x="359" y="962"/>
      <point x="347" y="928"/>
      <point x="347" y="887" type="curve" smooth="yes"/>
      <point x="347" y="866"/>
      <point x="353" y="844"/>
      <point x="364" y="821" type="curve" smooth="yes"/>
      <point x="375" y="798"/>
      <point x="384" y="783"/>
      <point x="391" y="775" type="curve" smooth="yes"/>
      <point x="398" y="767"/>
      <point x="404" y="761"/>
      <point x="409" y="756" type="curve"/>
      <point x="183" y="582" type="line"/>
      <point x="132" y="627"/>
      <point x="94" y="681"/>
      <point x="69" y="744" type="curve" smooth="yes"/>
      <point x="44" y="807"/>
      <point x="32" y="874"/>
      <point x="34" y="945" type="curve"/>
      <point x="33" y="1001"/>
      <point x="44" y="1053"/>
      <point x="67" y="1102" type="curve" smooth="yes"/>
      <point x="90" y="1151"/>
      <point x="120" y="1193"/>
      <point x="158" y="1228" type="curve" smooth="yes"/>
      <point x="196" y="1263"/>
      <point x="240" y="1292"/>
      <point x="289" y="1316" type="curve" smooth="yes"/>
      <point x="338" y="1340"/>
      <point x="390" y="1358"/>
      <point x="444" y="1369" type="curve" smooth="yes"/>
      <point x="498" y="1380"/>
      <point x="552" y="1384"/>
      <point x="606" y="1382" type="curve" smooth="yes"/>
      <point x="679" y="1379"/>
      <point x="747" y="1367"/>
      <point x="810" y="1346" type="curve" smooth="yes"/>
      <point x="873" y="1325"/>
      <point x="928" y="1296"/>
      <point x="976" y="1258" type="curve" smooth="yes"/>
      <point x="1024" y="1220"/>
      <point x="1061" y="1172"/>
      <point x="1088" y="1114" type="curve" smooth="yes"/>
      <point x="1115" y="1056"/>
      <point x="1129" y="992"/>
      <point x="1129" y="921" type="curve" smooth="yes"/>
      <point x="1129" y="819"/>
      <point x="1094" y="723"/>
      <point x="1023" y="632" type="curve" smooth="yes"/>
      <point x="996" y="597"/>
      <point x="957" y="557"/>
      <point x="907" y="512" type="curve" smooth="yes"/>
      <point x="857" y="467"/>
      <point x="818" y="434"/>
      <point x="791" y="413" type="curve" smooth="yes"/>
      <point x="764" y="392"/>
      <point x="721" y="360"/>
      <point x="663" y="317" type="curve"/>
      <point x="824" y="317" type="line"/>
      <point x="856" y="318"/>
      <point x="883" y="320"/>
      <point x="906" y="324" type="curve" smooth="yes"/>
      <point x="929" y="328"/>
      <point x="951" y="335"/>
      <point x="973" y="345" type="curve" smooth="yes"/>
      <point x="995" y="355"/>
      <point x="1011" y="370"/>
      <point x="1022" y="390" type="curve" smooth="yes"/>
      <point x="1033" y="410"/>
      <point x="1039" y="435"/>
      <point x="1039" y="465" type="curve"/>
      <point x="1212" y="465" type="line"/>
    </contour>
  </outline>
</glyph>
<glyph name="three" format="1">
  <advance width="1201"/>
  <unicode hex="0033"/>
  <outline>
    <contour>
      <point x="47" y="424" type="line"/>
      <point x="168" y="327"/>
      <point x="291" y="278"/>
      <point x="417" y="278" type="curve" smooth="yes"/>
      <point x="443" y="278"/>
      <point x="468" y="280"/>
      <point x="492" y="285" type="curve" smooth="yes"/>
      <point x="516" y="290"/>
      <point x="540" y="298"/>
      <point x="563" y="309" type="curve" smooth="yes"/>
      <point x="586" y="320"/>
      <point x="604" y="335"/>
      <point x="618" y="355" type="curve" smooth="yes"/>
      <point x="632" y="375"/>
      <point x="639" y="398"/>
      <point x="639" y="425" type="curve" smooth="yes"/>
      <point x="639" y="456"/>
      <point x="631" y="483"/>
      <point x="616" y="506" type="curve" smooth="yes"/>
      <point x="601" y="529"/>
      <point x="581" y="546"/>
      <point x="556" y="558" type="curve" smooth="yes"/>
      <point x="531" y="570"/>
      <point x="505" y="579"/>
      <point x="478" y="584" type="curve" smooth="yes"/>
      <point x="451" y="589"/>
      <point x="422" y="592"/>
      <point x="392" y="592" type="curve" smooth="yes"/>
      <point x="366" y="592"/>
      <point x="339" y="589"/>
      <point x="312" y="582" type="curve" smooth="yes"/>
      <point x="285" y="575"/>
      <point x="269" y="572"/>
      <point x="265" y="572" type="curve" smooth="yes"/>
      <point x="256" y="572"/>
      <point x="249" y="574"/>
      <point x="245" y="577" type="curve"/>
      <point x="244" y="582" type="line"/>
      <point x="244" y="740" type="line"/>
      <point x="586" y="1031" type="line"/>
      <point x="586" y="1041" type="line"/>
      <point x="366" y="1041" type="line" smooth="yes"/>
      <point x="318" y="1041"/>
      <point x="284" y="1027"/>
      <point x="265" y="1000" type="curve" smooth="yes"/>
      <point x="255" y="985"/>
      <point x="243" y="951"/>
      <point x="229" y="898" type="curve"/>
      <point x="35" y="899" type="line"/>
      <point x="35" y="1352" type="line"/>
      <point x="1104" y="1352" type="line"/>
      <point x="1104" y="1088" type="line" smooth="yes"/>
      <point x="1104" y="1086"/>
      <point x="1009" y="1007"/>
      <point x="820" y="851" type="curve"/>
      <point x="916" y="842"/>
      <point x="998" y="800"/>
      <point x="1067" y="725" type="curve" smooth="yes"/>
      <point x="1136" y="650"/>
      <point x="1170" y="566"/>
      <point x="1170" y="473" type="curve" smooth="yes"/>
      <point x="1170" y="316"/>
      <point x="1112" y="195"/>
      <point x="996" y="110" type="curve" smooth="yes"/>
      <point x="880" y="25"/>
      <point x="722" y="-18"/>
      <point x="522" y="-18" type="curve" smooth="yes"/>
      <point x="417" y="-18"/>
      <point x="326" y="-12"/>
      <point x="250" y="0" type="curve" smooth="yes"/>
      <point x="174" y="12"/>
      <point x="106" y="38"/>
      <point x="47" y="78" type="curve"/>
    </contour>
  </outline>
</glyph>
<glyph name="semicolon" format="1">
  <advance width="627"/>
  <unicode hex="003B"/>
  <outline>
    <contour>
      <point x="45" y="-450" type="line"/>
      <point x="228" y="-450"/>
      <point x="363" y="-407"/>
      <point x="450" y="-321" type="curve" smooth="yes"/>
      <point x="537" y="-235"/>
      <point x="580" y="-99"/>
      <point x="580" y="86" type="curve" smooth="yes"/>
      <point x="580" y="168"/>
      <point x="572" y="260"/>
      <point x="556" y="363" type="curve"/>
      <point x="46" y="363" type="line"/>
      <point x="46" y="-3" type="line"/>
      <point x="235" y="-3" type="line"/>
      <point x="235" y="-31"/>
      <point x="235" y="-52"/>
      <point x="234" y="-67" type="curve" smooth="yes"/>
      <point x="233" y="-82"/>
      <point x="231" y="-99"/>
      <point x="227" y="-119" type="curve" smooth="yes"/>
      <point x="223" y="-139"/>
      <point x="217" y="-154"/>
      <point x="209" y="-165" type="curve" smooth="yes"/>
      <point x="201" y="-176"/>
      <point x="190" y="-186"/>
      <point x="176" y="-196" type="curve" smooth="yes"/>
      <point x="162" y="-206"/>
      <point x="144" y="-213"/>
      <point x="122" y="-217" type="curve" smooth="yes"/>
      <point x="100" y="-221"/>
      <point x="74" y="-223"/>
      <point x="44" y="-223" type="curve"/>
      <point x="44" y="-448" type="line"/>
    </contour>
    <contour>
      <point x="310" y="592" type="curve"/>
      <point x="312" y="593" type="line"/>
      <point x="393" y="593"/>
      <point x="461" y="615"/>
      <point x="516" y="660" type="curve" smooth="yes"/>
      <point x="571" y="705"/>
      <point x="598" y="766"/>
      <point x="598" y="843" type="curve" smooth="yes"/>
      <point x="598" y="918"/>
      <point x="571" y="978"/>
      <point x="518" y="1022" type="curve" smooth="yes"/>
      <point x="465" y="1066"/>
      <point x="396" y="1088"/>
      <point x="311" y="1088" type="curve" smooth="yes"/>
      <point x="230" y="1088"/>
      <point x="163" y="1066"/>
      <point x="111" y="1022" type="curve" smooth="yes"/>
      <point x="59" y="978"/>
      <point x="33" y="918"/>
      <point x="33" y="843" type="curve" smooth="yes"/>
      <point x="33" y="766"/>
      <point x="59" y="705"/>
      <point x="112" y="660" type="curve" smooth="yes"/>
      <point x="165" y="615"/>
      <point x="231" y="592"/>
    </contour>
  </outline>
</glyph>
<glyph name="greater" format="1">
  <advance width="766"/>
  <unicode hex="003E"/>
  <outline>
    <contour>
      <point x="36" y="-20" type="line"/>
      <point x="751" y="576" type="line"/>
      <point x="751" y="946" type="line"/>
      <point x="36" y="1542" type="line"/>
      <point x="36" y="1077" type="line"/>
      <point x="369" y="761" type="line"/>
      <point x="36" y="445" type="line"/>
    </contour>
  </outline>
</glyph>
<glyph name="A" format="1">
  <advance width="1760"/>
  <unicode hex="0041"/>
  <outline>
    <contour>
      <point x="32" y="0" type="line"/>
      <point x="736" y="0" type="line"/>
      <point x="736" y="352" type="line"/>
      <point x="544" y="352" type="line"/>
      <point x="590" y="523" type="line"/>
      <point x="951" y="523" type="line"/>
      <point x="993" y="352" type="line"/>
      <point x="864" y="352" type="line"/>
      <point x="864" y="0" type="line"/>
      <point x="1760" y="0" type="line"/>
      <point x="1760" y="352" type="line"/>
      <point x="1601" y="352" type="line"/>
      <point x="1248" y="1592" type="line"/>
      <point x="256" y="1592" type="line"/>
      <point x="256" y="1240" type="line"/>
      <point x="465" y="1240" type="line"/>
      <point x="191" y="352" type="line"/>
      <point x="32" y="352" type="line"/>
    </contour>
    <contour>
      <point x="642" y="763" type="line"/>
      <point x="786" y="1251" type="line"/>
      <point x="903" y="763" type="line"/>
    </contour>
    <contour>
      <point x="850" y="1592" type="move" name="top"/>
    </contour>
    <contour>
      <point x="1530" y="10" type="move" name="ogonek"/>
    </contour>
  </outline>
</glyph>
<glyph name="C" format="1">
  <advance width="1547"/>
  <unicode hex="0043"/>
  <outline>
    <contour>
      <point x="871" y="-28" type="curve" smooth="yes"/>
      <point x="1056" y="-28"/>
      <point x="1256" y="-5"/>
      <point x="1440" y="102" type="curve"/>
      <point x="1440" y="529" type="line"/>
      <point x="1418" y="546" type="line"/>
      <point x="1353" y="501"/>
      <point x="1202" y="418"/>
      <point x="1016" y="418" type="curve" smooth="yes"/>
      <point x="784" y="418"/>
      <point x="640" y="575"/>
      <point x="640" y="846" type="curve" smooth="yes"/>
      <point x="640" y="1053"/>
      <point x="762" y="1260"/>
      <point x="921" y="1260" type="curve" smooth="yes"/>
      <point x="1081" y="1260"/>
      <point x="1152" y="1129"/>
      <point x="1152" y="971" type="curve" smooth="yes"/>
      <point x="1152" y="938" type="line"/>
      <point x="1472" y="938" type="line"/>
      <point x="1472" y="1592" type="line"/>
      <point x="1162" y="1592" type="line"/>
      <point x="1120" y="1429" type="line"/>
      <point x="1069" y="1536"/>
      <point x="940" y="1623"/>
      <point x="778" y="1623" type="curve" smooth="yes"/>
      <point x="310" y="1623"/>
      <point x="64" y="1254"/>
      <point x="64" y="805" type="curve" smooth="yes"/>
      <point x="64" y="237"/>
      <point x="443" y="-28"/>
    </contour>
    <contour>
      <point x="755.0" y="1592.0" type="move" name="top"/>
    </contour>
    <contour>
      <point x="755.0" y="0.0" type="move" name="bottom"/>
    </contour>
  </outline>
</glyph>
<glyph name="D" format="1">
  <advance width="1751"/>
  <unicode hex="0044"/>
  <outline>
    <contour>
      <point x="1706" y="796" type="curve" smooth="yes"/>
      <point x="1706" y="350"/>
      <point x="1393" y="0"/>
      <point x="862" y="0" type="curve" smooth="yes"/>
      <point x="60" y="0" type="line"/>
      <point x="60" y="359" type="line"/>
      <point x="223" y="359" type="line"/>
      <point x="223" y="1241" type="line"/>
      <point x="54" y="1241" type="line"/>
      <point x="54" y="1593" type="line"/>
      <point x="884" y="1593" type="line" smooth="yes"/>
      <point x="1425" y="1593"/>
      <point x="1706" y="1325"/>
    </contour>
    <contour>
      <point x="1112" y="797" type="curve" smooth="yes"/>
      <point x="1112" y="1032"/>
      <point x="1058" y="1241"/>
      <point x="817" y="1241" type="curve" smooth="yes"/>
      <point x="770" y="1241" type="line"/>
      <point x="770" y="359" type="line"/>
      <point x="805" y="359" type="line" smooth="yes"/>
      <point x="1044" y="359"/>
      <point x="1112" y="568"/>
    </contour>
    <contour>
      <point x="880" y="1593" type="move" name="top"/>
    </contour>
    <contour>
      <point x="880" y="0" type="move" name="bot"/>
    </contour>
  </outline>
</glyph>
<glyph name="E" format="1">
  <advance width="1451"/>
  <unicode hex="0045"/>
  <outline>
    <contour>
      <point x="96" y="0" type="line"/>
      <point x="1440" y="0" type="line"/>
      <point x="1440" y="677" type="line"/>
      <point x="1184" y="677" type="line"/>
      <point x="1088" y="352" type="line"/>
      <point x="800" y="352" type="line"/>
      <point x="800" y="716" type="line"/>
      <point x="1056" y="716" type="line"/>
      <point x="1056" y="978" type="line"/>
      <point x="800" y="978" type="line"/>
      <point x="800" y="1240" type="line"/>
      <point x="1088" y="1240" type="line"/>
      <point x="1184" y="959" type="line"/>
      <point x="1440" y="959" type="line"/>
      <point x="1440" y="1592" type="line"/>
      <point x="96" y="1592" type="line"/>
      <point x="96" y="1240" type="line"/>
      <point x="288" y="1240" type="line"/>
      <point x="288" y="352" type="line"/>
      <point x="96" y="352" type="line"/>
    </contour>
    <contour>
      <point x="750" y="1592" type="move" name="top"/>
    </contour>
    <contour>
      <point x="750" y="0" type="move" name="bottom"/>
    </contour>
    <contour>
      <point x="1311" y="10" type="move" name="ogonek"/>
    </contour>
  </outline>
</glyph>
<glyph name="F" format="1">
  <advance width="1434"/>
  <unicode hex="0046"/>
  <outline>
    <contour>
      <point x="96" y="0" type="line"/>
      <point x="992" y="0" type="line"/>
      <point x="992" y="352" type="line"/>
      <point x="800" y="352" type="line"/>
      <point x="800" y="683" type="line"/>
      <point x="1025" y="683" type="line"/>
      <point x="1025" y="939" type="line"/>
      <point x="800" y="939" type="line"/>
      <point x="800" y="1240" type="line"/>
      <point x="1056" y="1240" type="line"/>
      <point x="1120" y="949" type="line"/>
      <point x="1408" y="949" type="line"/>
      <point x="1408" y="1592" type="line"/>
      <point x="96" y="1592" type="line"/>
      <point x="96" y="1240" type="line"/>
      <point x="288" y="1240" type="line"/>
      <point x="288" y="352" type="line"/>
      <point x="96" y="352" type="line"/>
    </contour>
  </outline>
</glyph>
<glyph name="G" format="1">
  <advance width="1723"/>
  <unicode hex="0047"/>
  <outline>
    <contour>
      <point x="952" y="-29" type="curve" smooth="yes"/>
      <point x="1184" y="-29"/>
      <point x="1427" y="30"/>
      <point x="1632" y="140" type="curve"/>
      <point x="1632" y="855" type="line"/>
      <point x="992" y="855" type="line"/>
      <point x="992" y="558" type="line"/>
      <point x="1184" y="558" type="line"/>
      <point x="1184" y="416" type="line"/>
      <point x="1184" y="416"/>
      <point x="1092" y="378"/>
      <point x="993" y="378" type="curve" smooth="yes"/>
      <point x="780" y="378"/>
      <point x="640" y="590"/>
      <point x="640" y="801" type="curve" smooth="yes"/>
      <point x="640" y="1089"/>
      <point x="790" y="1260"/>
      <point x="987" y="1260" type="curve" smooth="yes"/>
      <point x="1099" y="1260"/>
      <point x="1248" y="1187"/>
      <point x="1291" y="1003" type="curve"/>
      <point x="1599" y="1003" type="line"/>
      <point x="1599" y="1592" type="line"/>
      <point x="1254" y="1592" type="line"/>
      <point x="1220" y="1485" type="line"/>
      <point x="1141" y="1581"/>
      <point x="992" y="1623"/>
      <point x="863" y="1623" type="curve" smooth="yes"/>
      <point x="324" y="1623"/>
      <point x="64" y="1265"/>
      <point x="64" y="792" type="curve" smooth="yes"/>
      <point x="64" y="211"/>
      <point x="488" y="-29"/>
    </contour>
    <contour>
      <point x="839" y="1592" type="move" name="top"/>
    </contour>
    <contour>
      <point x="839" y="0" type="move" name="bottom"/>
    </contour>
  </outline>
</glyph>
<glyph name="I" format="1">
  <advance width="1029"/>
  <unicode hex="0049"/>
  <outline>
    <contour>
      <point x="960" y="1592" type="line"/>
      <point x="128" y="1592" type="line"/>
      <point x="128" y="1240" type="line"/>
      <point x="288" y="1240" type="line"/>
      <point x="288" y="352" type="line"/>
      <point x="128" y="352" type="line"/>
      <point x="128" y="0" type="line"/>
      <point x="960" y="0" type="line"/>
      <point x="960" y="352" type="line"/>
      <point x="800" y="352" type="line"/>
      <point x="800" y="1240" type="line"/>
      <point x="960" y="1240" type="line"/>
    </contour>
    <contour>
      <point x="618" y="0" type="move" name="top"/>
    </contour>
    <contour>
      <point x="242" y="1582" type="move" name="ogonek"/>
    </contour>
  </outline>
</glyph>
<glyph name="J" format="1">
  <advance width="1368"/>
  <unicode hex="004A"/>
  <outline>
    <contour>
      <point x="656" y="-30" type="curve" smooth="yes"/>
      <point x="965" y="-30"/>
      <point x="1152" y="167"/>
      <point x="1152" y="475" type="curve" smooth="yes"/>
      <point x="1152" y="1240" type="line"/>
      <point x="1312" y="1240" type="line"/>
      <point x="1312" y="1593" type="line"/>
      <point x="448" y="1593" type="line"/>
      <point x="448" y="1240" type="line"/>
      <point x="640" y="1240" type="line"/>
      <point x="640" y="572" type="line" smooth="yes"/>
      <point x="640" y="458"/>
      <point x="583" y="352"/>
      <point x="488" y="352" type="curve" smooth="yes"/>
      <point x="370" y="352"/>
      <point x="352" y="458"/>
      <point x="352" y="633" type="curve"/>
      <point x="64" y="633" type="line"/>
      <point x="64" y="-13" type="line"/>
      <point x="331" y="-13" type="line"/>
      <point x="368" y="99" type="line"/>
      <point x="427" y="26"/>
      <point x="523" y="-30"/>
    </contour>
    <contour>
      <point x="647" y="1592" type="move" name="top"/>
    </contour>
  </outline>
</glyph>
<glyph name="K" format="1">
  <advance width="1814"/>
  <unicode hex="004B"/>
  <outline>
    <contour>
      <point x="128" y="0" type="line"/>
      <point x="960" y="0" type="line"/>
      <point x="960" y="352" type="line"/>
      <point x="800" y="352" type="line"/>
      <point x="800" y="630" type="line"/>
      <point x="947" y="630" type="line" smooth="yes"/>
      <point x="1009" y="630"/>
      <point x="1057" y="543"/>
      <point x="1057" y="482" type="curve" smooth="yes"/>
      <point x="1057" y="307" type="line" smooth="yes"/>
      <point x="1057" y="102"/>
      <point x="1169" y="0"/>
      <point x="1393" y="0" type="curve" smooth="yes"/>
      <point x="1760" y="0" type="line"/>
      <point x="1760" y="352" type="line"/>
      <point x="1645" y="352" type="line" smooth="yes"/>
      <point x="1602" y="352"/>
      <point x="1578" y="392"/>
      <point x="1578" y="431" type="curve" smooth="yes"/>
      <point x="1578" y="592" type="line" smooth="yes"/>
      <point x="1578" y="788"/>
      <point x="1428" y="840"/>
      <point x="1232" y="840" type="curve"/>
      <point x="1232" y="854" type="line"/>
      <point x="1551" y="1240" type="line"/>
      <point x="1688" y="1240" type="line"/>
      <point x="1688" y="1592" type="line"/>
      <point x="1064" y="1592" type="line"/>
      <point x="1064" y="1240" type="line"/>
      <point x="800" y="877" type="line"/>
      <point x="800" y="1240" type="line"/>
      <point x="928" y="1240" type="line"/>
      <point x="928" y="1592" type="line"/>
      <point x="128" y="1592" type="line"/>
      <point x="128" y="1240" type="line"/>
      <point x="288" y="1240" type="line"/>
      <point x="288" y="352" type="line"/>
      <point x="128" y="352" type="line"/>
    </contour>
    <contour>
      <point x="874" y="1592" type="move" name="top"/>
    </contour>
    <contour>
      <point x="874" y="0" type="move" name="bottom"/>
    </contour>
  </outline>
</glyph>
<glyph name="O" format="1">
  <advance width="1730"/>
  <unicode hex="004F"/>
  <outline>
    <contour>
      <point x="865" y="318" type="curve"/>
      <point x="715" y="318"/>
      <point x="645" y="564"/>
      <point x="645" y="806" type="curve" smooth="yes"/>
      <point x="645" y="1037"/>
      <point x="709" y="1260"/>
      <point x="865" y="1260" type="curve" smooth="yes"/>
      <point x="1021" y="1260"/>
      <point x="1085" y="1037"/>
      <point x="1085" y="806" type="curve" smooth="yes"/>
      <point x="1085" y="564"/>
      <point x="1015" y="318"/>
    </contour>
    <contour>
      <point x="865" y="-29" type="curve" smooth="yes"/>
      <point x="1346" y="-29"/>
      <point x="1685" y="323"/>
      <point x="1685" y="798" type="curve" smooth="yes"/>
      <point x="1685" y="1295"/>
      <point x="1370" y="1623"/>
      <point x="865" y="1623" type="curve"/>
      <point x="360" y="1623"/>
      <point x="45" y="1295"/>
      <point x="45" y="798" type="curve" smooth="yes"/>
      <point x="45" y="323"/>
      <point x="384" y="-29"/>
    </contour>
    <contour>
      <point x="865" y="1593" type="move" name="top"/>
    </contour>
    <contour>
      <point x="865" y="0" type="move" name="bot"/>
    </contour>
  </outline>
</glyph>
<glyph name="Q" format="1">
  <advance width="1782"/>
  <unicode hex="0051"/>
  <outline>
    <contour>
      <point x="865" y="-29" type="curve" smooth="yes"/>
      <point x="947" y="-29"/>
      <point x="1026" y="-18"/>
      <point x="1099" y="1" type="curve"/>
      <point x="1737" y="1" type="line"/>
      <point x="1737" y="360" type="line"/>
      <point x="1574" y="360" type="line"/>
      <point x="1571" y="359" type="line"/>
      <point x="1644" y="484"/>
      <point x="1685" y="633"/>
      <point x="1685" y="798" type="curve" smooth="yes"/>
      <point x="1685" y="1295"/>
      <point x="1370" y="1623"/>
      <point x="865" y="1623" type="curve" smooth="yes"/>
      <point x="360" y="1623"/>
      <point x="45" y="1295"/>
      <point x="45" y="798" type="curve" smooth="yes"/>
      <point x="45" y="323"/>
      <point x="384" y="-29"/>
    </contour>
    <contour>
      <point x="865" y="318" type="curve" smooth="yes"/>
      <point x="715" y="318"/>
      <point x="645" y="564"/>
      <point x="645" y="806" type="curve" smooth="yes"/>
      <point x="645" y="1037"/>
      <point x="709" y="1260"/>
      <point x="865" y="1260" type="curve" smooth="yes"/>
      <point x="1021" y="1260"/>
      <point x="1085" y="1037"/>
      <point x="1085" y="806" type="curve" smooth="yes"/>
      <point x="1085" y="564"/>
      <point x="1015" y="318"/>
    </contour>
    <contour>
      <point x="891" y="1593" type="move" name="top"/>
    </contour>
    <contour>
      <point x="891" y="0" type="move" name="bot"/>
    </contour>
  </outline>
</glyph>
<glyph name="R" format="1">
  <advance width="1780"/>
  <unicode hex="0052"/>
  <outline>
    <contour>
      <point x="83" y="-2" type="line"/>
      <point x="447" y="-1"/>
      <point x="717" y="-1"/>
      <point x="893" y="-1" type="curve"/>
      <point x="893" y="358" type="line"/>
      <point x="772" y="358" type="line"/>
      <point x="772" y="683" type="line"/>
      <point x="870" y="683" type="line" smooth="yes"/>
      <point x="1023" y="683"/>
      <point x="1056" y="592"/>
      <point x="1056" y="440" type="curve" smooth="yes"/>
      <point x="1056" y="255" type="line" smooth="yes"/>
      <point x="1056" y="53"/>
      <point x="1187" y="-1"/>
      <point x="1384" y="-1" type="curve" smooth="yes"/>
      <point x="1708" y="-1" type="line"/>
      <point x="1708" y="358" type="line"/>
      <point x="1606" y="358"/>
      <point x="1544" y="367"/>
      <point x="1544" y="465" type="curve" smooth="yes"/>
      <point x="1544" y="548" type="line" smooth="yes"/>
      <point x="1544" y="706"/>
      <point x="1420" y="762"/>
      <point x="1267" y="797" type="curve"/>
      <point x="1466" y="834"/>
      <point x="1626" y="941"/>
      <point x="1626" y="1160" type="curve" smooth="yes"/>
      <point x="1626" y="1473"/>
      <point x="1424" y="1592"/>
      <point x="1097" y="1592" type="curve" smooth="yes"/>
      <point x="82" y="1592" type="line"/>
      <point x="82" y="1239" type="line"/>
      <point x="237" y="1239" type="line"/>
      <point x="237" y="358" type="line"/>
      <point x="83" y="358" type="line"/>
    </contour>
    <contour>
      <point x="766" y="909" type="line"/>
      <point x="766" y="1239" type="line"/>
      <point x="887" y="1239" type="line" smooth="yes"/>
      <point x="1000" y="1239"/>
      <point x="1077" y="1183"/>
      <point x="1077" y="1085" type="curve" smooth="yes"/>
      <point x="1077" y="949"/>
      <point x="962" y="909"/>
      <point x="827" y="909" type="curve" smooth="yes"/>
    </contour>
    <contour>
      <point x="865" y="1592" type="move" name="top"/>
    </contour>
    <contour>
      <point x="865" y="0" type="move" name="bottom"/>
    </contour>
  </outline>
</glyph>
<glyph name="U" format="1">
  <advance width="1691"/>
  <unicode hex="0055"/>
  <outline>
    <contour>
      <point x="832" y="-29" type="curve" smooth="yes"/>
      <point x="1175" y="-29"/>
      <point x="1483" y="181"/>
      <point x="1483" y="520" type="curve" smooth="yes"/>
      <point x="1483" y="1240" type="line"/>
      <point x="1637" y="1240" type="line"/>
      <point x="1637" y="1592" type="line"/>
      <point x="983" y="1592" type="line"/>
      <point x="983" y="1240" type="line"/>
      <point x="1147" y="1240" type="line"/>
      <point x="1147" y="536" type="line" smooth="yes"/>
      <point x="1147" y="417"/>
      <point x="1071" y="346"/>
      <point x="951" y="346" type="curve" smooth="yes"/>
      <point x="812" y="346"/>
      <point x="762" y="462"/>
      <point x="762" y="600" type="curve" smooth="yes"/>
      <point x="762" y="1240" type="line"/>
      <point x="910" y="1240" type="line"/>
      <point x="910" y="1592" type="line"/>
      <point x="41" y="1592" type="line"/>
      <point x="41" y="1240" type="line"/>
      <point x="202" y="1240" type="line"/>
      <point x="202" y="704" type="line" smooth="yes"/>
      <point x="202" y="245"/>
      <point x="371" y="-29"/>
    </contour>
    <contour>
      <point x="828" y="1592" type="move" name="top"/>
    </contour>
    <contour>
      <point x="1489" y="10" type="move" name="ogonek"/>
    </contour>
  </outline>
</glyph>
<glyph name="Z" format="1">
  <advance width="1487"/>
  <unicode hex="005A"/>
  <outline>
    <contour>
      <point x="1430" y="1263" type="line"/>
      <point x="1430" y="1592" type="line"/>
      <point x="36" y="1592" type="line"/>
      <point x="36" y="928" type="line"/>
      <point x="324" y="928" type="line"/>
      <point x="404" y="1240" type="line"/>
      <point x="719" y="1240" type="line"/>
      <point x="41" y="350" type="line"/>
      <point x="41" y="0" type="line"/>
      <point x="1451" y="0" type="line"/>
      <point x="1451" y="695" type="line"/>
      <point x="1169" y="695" type="line"/>
      <point x="1062" y="359" type="line"/>
      <point x="753" y="359" type="line"/>
    </contour>
    <contour>
      <point x="743" y="1593" type="move" name="top"/>
    </contour>
    <contour>
      <point x="743" y="0" type="move" name="bot"/>
    </contour>
  </outline>
</glyph>
<glyph name="a" format="1">
  <advance width="1396"/>
  <unicode hex="0061"/>
  <outline>
    <contour>
      <point x="446" y="-18" type="curve" smooth="yes"/>
      <point x="570" y="-18"/>
      <point x="710" y="59"/>
      <point x="767" y="134" type="curve"/>
      <point x="814" y="0" type="line"/>
      <point x="1326" y="0" type="line"/>
      <point x="1326" y="301" type="line"/>
      <point x="1230" y="301" type="line"/>
      <point x="1230" y="750" type="line" smooth="yes"/>
      <point x="1230" y="1032"/>
      <point x="919" y="1091"/>
      <point x="622" y="1091" type="curve" smooth="yes"/>
      <point x="498" y="1091"/>
      <point x="303" y="1064"/>
      <point x="142" y="1022" type="curve"/>
      <point x="142" y="708" type="line"/>
      <point x="321" y="708" type="line"/>
      <point x="369" y="771"/>
      <point x="463" y="823"/>
      <point x="558" y="823" type="curve" smooth="yes"/>
      <point x="706" y="823"/>
      <point x="750" y="748"/>
      <point x="750" y="637" type="curve" smooth="yes"/>
      <point x="750" y="592" type="line"/>
      <point x="674" y="617"/>
      <point x="598" y="630"/>
      <point x="497" y="630" type="curve" smooth="yes"/>
      <point x="285" y="630"/>
      <point x="78" y="529"/>
      <point x="78" y="308" type="curve" smooth="yes"/>
      <point x="78" y="104"/>
      <point x="249" y="-18"/>
    </contour>
    <contour>
      <point x="626" y="224" type="curve" smooth="yes"/>
      <point x="559" y="224"/>
      <point x="526" y="275"/>
      <point x="526" y="327" type="curve" smooth="yes"/>
      <point x="526" y="401"/>
      <point x="571" y="448"/>
      <point x="644" y="448" type="curve" smooth="yes"/>
      <point x="680" y="448"/>
      <point x="725" y="432"/>
      <point x="750" y="427" type="curve"/>
      <point x="750" y="260" type="line"/>
      <point x="733" y="243"/>
      <point x="670" y="224"/>
    </contour>
    <contour>
      <point x="678" y="1072" type="move" name="top"/>
    </contour>
    <contour>
      <point x="1219" y="10" type="move" name="ogonek"/>
    </contour>
  </outline>
</glyph>
<glyph name="b" format="1">
  <advance width="1500"/>
  <unicode hex="0062"/>
  <outline>
    <contour>
      <point x="961" y="-18" type="curve" smooth="yes"/>
      <point x="1274" y="-18"/>
      <point x="1428" y="228"/>
      <point x="1428" y="538" type="curve" smooth="yes"/>
      <point x="1428" y="837"/>
      <point x="1280" y="1092"/>
      <point x="982" y="1092" type="curve" smooth="yes"/>
      <point x="883" y="1092"/>
      <point x="765" y="1050"/>
      <point x="660" y="965" type="curve"/>
      <point x="660" y="1560" type="line"/>
      <point x="52" y="1495" type="line"/>
      <point x="52" y="1222" type="line"/>
      <point x="180" y="1222" type="line"/>
      <point x="180" y="0" type="line"/>
      <point x="628" y="0" type="line"/>
      <point x="668" y="115" type="line"/>
      <point x="724" y="51"/>
      <point x="828" y="-18"/>
    </contour>
    <contour>
      <point x="816" y="274" type="curve" smooth="yes"/>
      <point x="756" y="274"/>
      <point x="687" y="301"/>
      <point x="660" y="324" type="curve"/>
      <point x="660" y="733" type="line"/>
      <point x="682" y="763"/>
      <point x="748" y="799"/>
      <point x="816" y="799" type="curve" smooth="yes"/>
      <point x="938" y="799"/>
      <point x="980" y="646"/>
      <point x="980" y="509" type="curve" smooth="yes"/>
      <point x="980" y="389"/>
      <point x="916" y="274"/>
    </contour>
  </outline>
</glyph>
<glyph name="c" format="1">
  <advance width="1250"/>
  <unicode hex="0063"/>
  <outline>
    <contour>
      <point x="683" y="-18" type="curve" smooth="yes"/>
      <point x="965" y="-18"/>
      <point x="1163" y="124"/>
      <point x="1163" y="124" type="curve"/>
      <point x="1163" y="425" type="line"/>
      <point x="875" y="425" type="line"/>
      <point x="861" y="332"/>
      <point x="801" y="274"/>
      <point x="731" y="274" type="curve" smooth="yes"/>
      <point x="631" y="274"/>
      <point x="555" y="319"/>
      <point x="555" y="545" type="curve" smooth="yes"/>
      <point x="555" y="751"/>
      <point x="629" y="799"/>
      <point x="732" y="799" type="curve" smooth="yes"/>
      <point x="807" y="799"/>
      <point x="864" y="737"/>
      <point x="875" y="628" type="curve"/>
      <point x="1163" y="628" type="line"/>
      <point x="1163" y="1072" type="line"/>
      <point x="946" y="1072" type="line"/>
      <point x="905" y="965" type="line"/>
      <point x="864" y="1061"/>
      <point x="683" y="1091"/>
      <point x="592" y="1091" type="curve" smooth="yes"/>
      <point x="276" y="1091"/>
      <point x="75" y="860"/>
      <point x="75" y="546" type="curve" smooth="yes"/>
      <point x="75" y="200"/>
      <point x="317" y="-18"/>
    </contour>
    <contour>
      <point x="608" y="1072" type="move" name="top"/>
    </contour>
    <contour>
      <point x="608" y="0" type="move" name="bottom"/>
    </contour>
  </outline>
</glyph>
<glyph name="f" format="1">
  <advance width="928"/>
  <unicode hex="0066"/>
  <outline>
    <contour>
      <point x="194" y="1167" type="line"/>
      <point x="194" y="1436"/>
      <point x="311" y="1570"/>
      <point x="549" y="1570" type="curve" smooth="yes"/>
      <point x="660" y="1570"/>
      <point x="816" y="1546"/>
      <point x="886" y="1523" type="curve"/>
      <point x="886" y="1212" type="line"/>
      <point x="835" y="1221"/>
      <point x="794" y="1225"/>
      <point x="760" y="1225" type="curve" smooth="yes"/>
      <point x="690" y="1225"/>
      <point x="672" y="1180"/>
      <point x="672" y="1107" type="curve" smooth="yes"/>
      <point x="672" y="1096"/>
      <point x="672" y="1084"/>
      <point x="673" y="1072" type="curve"/>
      <point x="887" y="1072" type="line"/>
      <point x="887" y="779" type="line"/>
      <point x="681" y="779" type="line"/>
      <point x="681" y="301" type="line"/>
      <point x="857" y="301" type="line"/>
      <point x="857" y="0" type="line"/>
      <point x="46" y="0" type="line"/>
      <point x="46" y="301" type="line"/>
      <point x="194" y="301" type="line"/>
      <point x="194" y="779" type="line"/>
      <point x="28" y="779" type="line"/>
      <point x="28" y="1072" type="line"/>
      <point x="194" y="1072" type="line"/>
    </contour>
    <contour>
      <point x="457" y="1008" type="move" name="top"/>
    </contour>
    <contour>
      <point x="457" y="0" type="move" name="bot"/>
    </contour>
  </outline>
</glyph>
<glyph name="g" format="1">
  <advance width="1424"/>
  <unicode hex="0067"/>
  <outline>
    <contour>
      <point x="802" y="117" type="curve"/>
      <point x="801" y="-68"/>
      <point x="694" y="-122"/>
      <point x="560" y="-122" type="curve" smooth="yes"/>
      <point x="431" y="-122"/>
      <point x="276" y="-71"/>
      <point x="169" y="-39" type="curve"/>
      <point x="169" y="-328" type="line"/>
      <point x="327" y="-369"/>
      <point x="480" y="-390"/>
      <point x="619" y="-390" type="curve" smooth="yes"/>
      <point x="1006" y="-390"/>
      <point x="1287" y="-226"/>
      <point x="1287" y="135" type="curve" smooth="yes"/>
      <point x="1287" y="761" type="line"/>
      <point x="1394" y="761" type="line"/>
      <point x="1394" y="1072" type="line"/>
      <point x="873" y="1072" type="line"/>
      <point x="802" y="922" type="line"/>
      <point x="745" y="1003"/>
      <point x="644" y="1091"/>
      <point x="486" y="1091" type="curve" smooth="yes"/>
      <point x="190" y="1091"/>
      <point x="34" y="839"/>
      <point x="34" y="541" type="curve" smooth="yes"/>
      <point x="34" y="252"/>
      <point x="187" y="0"/>
      <point x="488" y="0" type="curve" smooth="yes"/>
      <point x="634" y="0"/>
      <point x="740" y="61"/>
    </contour>
    <contour>
      <point x="505" y="535" type="curve"/>
      <point x="505" y="699"/>
      <point x="559" y="779"/>
      <point x="668" y="779" type="curve" smooth="yes"/>
      <point x="738" y="779"/>
      <point x="787" y="739"/>
      <point x="800" y="685" type="curve"/>
      <point x="800" y="390" type="line" smooth="yes"/>
      <point x="800" y="347"/>
      <point x="739" y="312"/>
      <point x="672" y="312" type="curve" smooth="yes"/>
      <point x="546" y="312"/>
      <point x="506" y="415"/>
    </contour>
    <contour>
      <point x="714" y="1008" type="move" name="top"/>
    </contour>
    <contour>
      <point x="714" y="0" type="move" name="bot"/>
    </contour>
  </outline>
</glyph>
<glyph name="h" format="1">
  <advance width="1438"/>
  <unicode hex="0068"/>
  <outline>
    <contour>
      <point x="951" y="1091" type="curve" smooth="yes"/>
      <point x="1187" y="1091"/>
      <point x="1306" y="944"/>
      <point x="1306" y="702" type="curve" smooth="yes"/>
      <point x="1306" y="301" type="line"/>
      <point x="1412" y="301" type="line"/>
      <point x="1412" y="0" type="line"/>
      <point x="819" y="0" type="line"/>
      <point x="819" y="654" type="line" smooth="yes"/>
      <point x="819" y="737"/>
      <point x="791" y="779"/>
      <point x="736" y="779" type="curve" smooth="yes"/>
      <point x="669" y="779"/>
      <point x="635" y="740"/>
      <point x="635" y="661" type="curve" smooth="yes"/>
      <point x="635" y="301" type="line"/>
      <point x="728" y="301" type="line"/>
      <point x="728" y="0" type="line"/>
      <point x="49" y="0" type="line"/>
      <point x="49" y="301" type="line"/>
      <point x="148" y="301" type="line"/>
      <point x="148" y="1222" type="line"/>
      <point x="44" y="1222" type="line"/>
      <point x="44" y="1495" type="line"/>
      <point x="635" y="1560" type="line"/>
      <point x="635" y="916" type="line"/>
      <point x="684" y="1004"/>
      <point x="785" y="1091"/>
    </contour>
    <contour>
      <point x="728" y="1008" type="move" name="top"/>
    </contour>
    <contour>
      <point x="728" y="0" type="move" name="bot"/>
    </contour>
  </outline>
</glyph>
<glyph name="i" format="1">
  <advance width="889"/>
  <unicode hex="0069"/>
  <outline>
    <contour>
      <point x="87" y="0" type="line"/>
      <point x="823" y="0" type="line"/>
      <point x="823" y="301" type="line"/>
      <point x="695" y="301" type="line"/>
      <point x="695" y="1072" type="line"/>
      <point x="87" y="1008" type="line"/>
      <point x="87" y="761" type="line"/>
      <point x="215" y="761" type="line"/>
      <point x="215" y="301" type="line"/>
      <point x="87" y="301" type="line"/>
    </contour>
    <contour>
      <point x="407" y="1135" type="curve" smooth="yes"/>
      <point x="565" y="1135"/>
      <point x="695" y="1229"/>
      <point x="695" y="1385" type="curve" smooth="yes"/>
      <point x="695" y="1542"/>
      <point x="569" y="1630"/>
      <point x="408" y="1630" type="curve" smooth="yes"/>
      <point x="251" y="1630"/>
      <point x="119" y="1540"/>
      <point x="119" y="1385" type="curve" smooth="yes"/>
      <point x="119" y="1230"/>
      <point x="252" y="1135"/>
    </contour>
  </outline>
</glyph>
<glyph name="j" format="1">
  <advance width="800"/>
  <unicode hex="006A"/>
  <outline>
    <contour>
      <point x="69" y="-398" type="line"/>
      <point x="486" y="-398"/>
      <point x="709" y="-317"/>
      <point x="709" y="81" type="curve" smooth="yes"/>
      <point x="709" y="1072" type="line"/>
      <point x="69" y="1008" type="line"/>
      <point x="69" y="761" type="line"/>
      <point x="229" y="761" type="line"/>
      <point x="229" y="0" type="line" smooth="yes"/>
      <point x="229" y="-56"/>
      <point x="197" y="-92"/>
      <point x="101" y="-92" type="curve" smooth="yes"/>
      <point x="69" y="-92" type="line"/>
    </contour>
    <contour>
      <point x="421" y="1135" type="curve" smooth="yes"/>
      <point x="579" y="1135"/>
      <point x="709" y="1229"/>
      <point x="709" y="1385" type="curve" smooth="yes"/>
      <point x="709" y="1542"/>
      <point x="583" y="1630"/>
      <point x="422" y="1630" type="curve" smooth="yes"/>
      <point x="265" y="1630"/>
      <point x="133" y="1540"/>
      <point x="133" y="1385" type="curve" smooth="yes"/>
      <point x="133" y="1230"/>
      <point x="266" y="1135"/>
    </contour>
  </outline>
</glyph>
<glyph name="l" format="1">
  <advance width="883"/>
  <unicode hex="006C"/>
  <outline>
    <contour>
      <point x="81" y="0" type="line"/>
      <point x="817" y="0" type="line"/>
      <point x="817" y="301" type="line"/>
      <point x="689" y="301" type="line"/>
      <point x="689" y="1560" type="line"/>
      <point x="81" y="1495" type="line"/>
      <point x="81" y="1222" type="line"/>
      <point x="209" y="1222" type="line"/>
      <point x="209" y="301" type="line"/>
      <point x="81" y="301" type="line"/>
    </contour>
    <contour>
      <point x="400" y="1072" type="move" name="top"/>
    </contour>
    <contour>
      <point x="400" y="0" type="move" name="bottom"/>
    </contour>
    <contour>
      <point x="780" y="1072" type="move" name="topright"/>
    </contour>
  </outline>
</glyph>
<glyph name="m" format="1">
  <advance width="2076"/>
  <unicode hex="006D"/>
  <outline>
    <contour>
      <point x="679" y="301" type="line"/>
      <point x="599" y="301" type="line"/>
      <point x="599" y="582" type="line" smooth="yes"/>
      <point x="599" y="671"/>
      <point x="618" y="779"/>
      <point x="707" y="779" type="curve" smooth="yes"/>
      <point x="782" y="779"/>
      <point x="819" y="741"/>
      <point x="819" y="674" type="curve" smooth="yes"/>
      <point x="819" y="0" type="line"/>
      <point x="1341" y="0" type="line"/>
      <point x="1341" y="301" type="line"/>
      <point x="1256" y="301" type="line"/>
      <point x="1256" y="615" type="line" smooth="yes"/>
      <point x="1256" y="702"/>
      <point x="1287" y="779"/>
      <point x="1376" y="779" type="curve" smooth="yes"/>
      <point x="1440" y="779"/>
      <point x="1470" y="731"/>
      <point x="1476" y="671" type="curve"/>
      <point x="1476" y="0" type="line"/>
      <point x="2050" y="0" type="line"/>
      <point x="2050" y="301" type="line"/>
      <point x="1931" y="301" type="line"/>
      <point x="1931" y="729" type="line" smooth="yes"/>
      <point x="1931" y="958"/>
      <point x="1806" y="1091"/>
      <point x="1581" y="1091" type="curve" smooth="yes"/>
      <point x="1438" y="1091"/>
      <point x="1322" y="1025"/>
      <point x="1232" y="891" type="curve"/>
      <point x="1185" y="996"/>
      <point x="1099" y="1091"/>
      <point x="964" y="1091" type="curve" smooth="yes"/>
      <point x="796" y="1091"/>
      <point x="672" y="1003"/>
      <point x="599" y="902" type="curve"/>
      <point x="599" y="1091" type="line"/>
      <point x="44" y="1032" type="line"/>
      <point x="44" y="761" type="line"/>
      <point x="158" y="761" type="line"/>
      <point x="158" y="301" type="line"/>
      <point x="44" y="301" type="line"/>
      <point x="44" y="0" type="line"/>
      <point x="679" y="0" type="line"/>
    </contour>
    <contour>
      <point x="1046" y="1008" type="move" name="top"/>
    </contour>
    <contour>
      <point x="1046" y="0" type="move" name="bot"/>
    </contour>
  </outline>
</glyph>
<glyph name="p" format="1">
  <advance width="1448"/>
  <unicode hex="0070"/>
  <outline>
    <contour>
      <point x="962" y="1091" type="curve"/>
      <point x="1258" y="1091"/>
      <point x="1414" y="839"/>
      <point x="1414" y="541" type="curve" smooth="yes"/>
      <point x="1414" y="242"/>
      <point x="1261" y="-18"/>
      <point x="960" y="-18" type="curve" smooth="yes"/>
      <point x="814" y="-18"/>
      <point x="710" y="53"/>
      <point x="648" y="119" type="curve"/>
      <point x="648" y="-96" type="line"/>
      <point x="759" y="-96" type="line"/>
      <point x="759" y="-397" type="line"/>
      <point x="44" y="-397" type="line"/>
      <point x="44" y="-94" type="line"/>
      <point x="161" y="-94" type="line"/>
      <point x="161" y="761" type="line"/>
      <point x="44" y="761" type="line"/>
      <point x="44" y="1030" type="line"/>
      <point x="648" y="1091" type="line"/>
      <point x="648" y="922" type="line"/>
      <point x="705" y="1003"/>
      <point x="804" y="1091"/>
    </contour>
    <contour>
      <point x="943" y="535" type="curve"/>
      <point x="943" y="699"/>
      <point x="889" y="779"/>
      <point x="780" y="779" type="curve" smooth="yes"/>
      <point x="710" y="779"/>
      <point x="661" y="739"/>
      <point x="648" y="685" type="curve"/>
      <point x="648" y="390" type="line" smooth="yes"/>
      <point x="648" y="335"/>
      <point x="709" y="294"/>
      <point x="776" y="294" type="curve" smooth="yes"/>
      <point x="902" y="294"/>
      <point x="942" y="405"/>
    </contour>
    <contour>
      <point x="729" y="1008" type="move" name="top"/>
    </contour>
    <contour>
      <point x="729" y="0" type="move" name="bot"/>
    </contour>
  </outline>
</glyph>
<glyph name="r" format="1">
  <advance width="1072"/>
  <unicode hex="0072"/>
  <outline>
    <contour>
      <point x="64" y="0" type="line"/>
      <point x="832" y="0" type="line"/>
      <point x="832" y="301" type="line"/>
      <point x="672" y="301" type="line"/>
      <point x="672" y="426" type="line" smooth="yes"/>
      <point x="672" y="551"/>
      <point x="712" y="684"/>
      <point x="875" y="684" type="curve" smooth="yes"/>
      <point x="909" y="684"/>
      <point x="948" y="679"/>
      <point x="992" y="667" type="curve"/>
      <point x="992" y="1091" type="line"/>
      <point x="892" y="1091"/>
      <point x="739" y="1026"/>
      <point x="672" y="917" type="curve"/>
      <point x="672" y="1092" type="line"/>
      <point x="64" y="1032" type="line"/>
      <point x="64" y="761" type="line"/>
      <point x="192" y="761" type="line"/>
      <point x="192" y="301" type="line"/>
      <point x="64" y="301" type="line"/>
    </contour>
    <contour>
      <point x="490" y="1072" type="move" name="top"/>
    </contour>
    <contour>
      <point x="490" y="0" type="move" name="bottom"/>
    </contour>
  </outline>
</glyph>
<glyph name="s" format="1">
  <advance width="1185"/>
  <unicode hex="0073"/>
  <outline>
    <contour>
      <point x="667" y="-18" type="curve" smooth="yes"/>
      <point x="896" y="-18"/>
      <point x="1107" y="116"/>
      <point x="1107" y="358" type="curve" smooth="yes"/>
      <point x="1107" y="739"/>
      <point x="623" y="711"/>
      <point x="615" y="843" type="curve"/>
      <point x="615" y="883"/>
      <point x="647" y="890"/>
      <point x="688" y="890" type="curve" smooth="yes"/>
      <point x="774" y="890"/>
      <point x="812" y="835"/>
      <point x="846" y="752" type="curve"/>
      <point x="1056" y="752" type="line"/>
      <point x="1056" y="1072" type="line"/>
      <point x="879" y="1072" type="line"/>
      <point x="855" y="1005" type="line"/>
      <point x="763" y="1062"/>
      <point x="659" y="1091"/>
      <point x="552" y="1091" type="curve" smooth="yes"/>
      <point x="308" y="1091"/>
      <point x="85" y="960"/>
      <point x="85" y="755" type="curve" smooth="yes"/>
      <point x="85" y="410"/>
      <point x="585" y="412"/>
      <point x="585" y="268" type="curve" smooth="yes"/>
      <point x="585" y="215"/>
      <point x="544" y="198"/>
      <point x="512" y="198" type="curve" smooth="yes"/>
      <point x="406" y="198"/>
      <point x="338" y="303"/>
      <point x="321" y="396" type="curve"/>
      <point x="84" y="396" type="line"/>
      <point x="84" y="0" type="line"/>
      <point x="270" y="0" type="line"/>
      <point x="303" y="90" type="line"/>
      <point x="410" y="16"/>
      <point x="537" y="-18"/>
    </contour>
    <contour>
      <point x="591" y="1072" type="move" name="top"/>
    </contour>
    <contour>
      <point x="591" y="0" type="move" name="bottom"/>
    </contour>
  </outline>
</glyph>
<glyph name="v" format="1">
  <advance width="1405"/>
  <unicode hex="0076"/>
  <outline>
    <contour>
      <point x="174" y="761" type="line"/>
      <point x="481" y="0" type="line"/>
      <point x="944" y="0" type="line"/>
      <point x="1235" y="761" type="line"/>
      <point x="1378" y="761" type="line"/>
      <point x="1378" y="1072" type="line"/>
      <point x="827" y="1072" type="line"/>
      <point x="827" y="761" type="line"/>
      <point x="930" y="761" type="line"/>
      <point x="787" y="298" type="line"/>
      <point x="620" y="761" type="line"/>
      <point x="713" y="761" type="line"/>
      <point x="713" y="1072" type="line"/>
      <point x="27" y="1072" type="line"/>
      <point x="27" y="761" type="line"/>
    </contour>
    <contour>
      <point x="702" y="1008" type="move" name="top"/>
    </contour>
    <contour>
      <point x="702" y="0" type="move" name="bot"/>
    </contour>
  </outline>
</glyph>
<glyph name="y" format="1">
  <advance width="1475"/>
  <unicode hex="0079"/>
  <outline>
    <contour>
      <point x="365" y="-377" type="line"/>
      <point x="365" y="-62" type="line"/>
      <point x="567" y="-62" type="line"/>
      <point x="622" y="31" type="line"/>
      <point x="156" y="761" type="line"/>
      <point x="28" y="761" type="line"/>
      <point x="28" y="1072" type="line"/>
      <point x="778" y="1072" type="line"/>
      <point x="778" y="761" type="line"/>
      <point x="680" y="761" type="line"/>
      <point x="846" y="454" type="line"/>
      <point x="998" y="761" type="line"/>
      <point x="888" y="761" type="line"/>
      <point x="888" y="1072" type="line"/>
      <point x="1448" y="1072" type="line"/>
      <point x="1448" y="761" type="line"/>
      <point x="1339" y="761" type="line"/>
      <point x="904" y="-62" type="line"/>
      <point x="1056" y="-62" type="line"/>
      <point x="1056" y="-377" type="line"/>
    </contour>
    <contour>
      <point x="738" y="1008" type="move" name="top"/>
    </contour>
    <contour>
      <point x="738" y="0" type="move" name="bot"/>
    </contour>
  </outline>
</glyph>
<glyph name="z" format="1">
  <advance width="1207"/>
  <unicode hex="007A"/>
  <outline>
    <contour>
      <point x="259" y="636" type="line"/>
      <point x="62" y="636" type="line"/>
      <point x="62" y="1072" type="line"/>
      <point x="1084" y="1072" type="line"/>
      <point x="1084" y="795" type="line"/>
      <point x="615" y="294" type="line"/>
      <point x="902" y="294" type="line"/>
      <point x="937" y="451" type="line"/>
      <point x="1120" y="451" type="line"/>
      <point x="1120" y="0" type="line"/>
      <point x="35" y="0" type="line"/>
      <point x="35" y="283" type="line"/>
      <point x="529" y="779" type="line"/>
      <point x="323" y="779" type="line"/>
    </contour>
    <contour>
      <point x="577" y="1008" type="move" name="top"/>
    </contour>
    <contour>
      <point x="577" y="0" type="move" name="bot"/>
    </contour>
  </outline>
</glyph>
<glyph name="bar" format="1">
  <advance width="467"/>
  <unicode hex="007C"/>
  <outline>
    <contour>
      <point x="431" y="1623" type="line"/>
      <point x="36" y="1623" type="line"/>
      <point x="36" y="0" type="line"/>
      <point x="431" y="0" type="line"/>
    </contour>
  </outline>
</glyph>
<glyph name="cent" format="1">
  <advance width="1101"/>
  <unicode hex="00A2"/>
  <outline>
    <contour>
      <point x="721" y="1362" type="line"/>
      <point x="609" y="1362" type="line"/>
      <point x="609" y="1089" type="line"/>
      <point x="594" y="1091"/>
      <point x="579" y="1092"/>
      <point x="564" y="1092" type="curve" smooth="yes"/>
      <point x="486" y="1092"/>
      <point x="414" y="1077"/>
      <point x="348" y="1047" type="curve" smooth="yes"/>
      <point x="282" y="1017"/>
      <point x="227" y="977"/>
      <point x="183" y="927" type="curve" smooth="yes"/>
      <point x="139" y="877"/>
      <point x="105" y="819"/>
      <point x="81" y="753" type="curve" smooth="yes"/>
      <point x="57" y="687"/>
      <point x="45" y="618"/>
      <point x="45" y="545" type="curve" smooth="yes"/>
      <point x="45" y="426"/>
      <point x="69" y="323"/>
      <point x="118" y="237" type="curve" smooth="yes"/>
      <point x="167" y="151"/>
      <point x="233" y="87"/>
      <point x="315" y="45" type="curve" smooth="yes"/>
      <point x="397" y="3"/>
      <point x="491" y="-18"/>
      <point x="596" y="-18" type="curve" smooth="yes"/>
      <point x="609" y="-18" type="line"/>
      <point x="609" y="-261" type="line"/>
      <point x="721" y="-261" type="line"/>
      <point x="721" y="-9" type="line"/>
      <point x="864" y="11"/>
      <point x="970" y="55"/>
      <point x="1039" y="124" type="curve"/>
      <point x="1039" y="425" type="line"/>
      <point x="799" y="425" type="line"/>
      <point x="799" y="422"/>
      <point x="798" y="419"/>
      <point x="797" y="415" type="curve" smooth="yes"/>
      <point x="796" y="411"/>
      <point x="794" y="403"/>
      <point x="791" y="392" type="curve" smooth="yes"/>
      <point x="788" y="381"/>
      <point x="784" y="370"/>
      <point x="779" y="360" type="curve" smooth="yes"/>
      <point x="774" y="350"/>
      <point x="766" y="340"/>
      <point x="756" y="329" type="curve" smooth="yes"/>
      <point x="746" y="318"/>
      <point x="735" y="310"/>
      <point x="722" y="305" type="curve"/>
      <point x="722" y="766" type="line"/>
      <point x="744" y="755"/>
      <point x="762" y="737"/>
      <point x="776" y="713" type="curve" smooth="yes"/>
      <point x="790" y="689"/>
      <point x="797" y="660"/>
      <point x="797" y="627" type="curve"/>
      <point x="1039" y="627" type="line"/>
      <point x="1039" y="1071" type="line"/>
      <point x="864" y="1071" type="line"/>
      <point x="823" y="994" type="line"/>
      <point x="790" y="1020"/>
      <point x="757" y="1041"/>
      <point x="724" y="1056" type="curve"/>
    </contour>
    <contour>
      <point x="520" y="512" type="curve" smooth="yes"/>
      <point x="520" y="637"/>
      <point x="551" y="719"/>
      <point x="612" y="758" type="curve"/>
      <point x="612" y="308" type="line"/>
      <point x="580" y="323"/>
      <point x="557" y="350"/>
      <point x="542" y="388" type="curve" smooth="yes"/>
      <point x="527" y="426"/>
      <point x="520" y="467"/>
    </contour>
  </outline>
</glyph>
<glyph name="guillemotright" format="1">
  <advance width="1311"/>
  <unicode hex="00BB"/>
  <outline>
    <contour>
      <point x="229" y="-5" type="line"/>
      <point x="655" y="399" type="line"/>
      <point x="655" y="669" type="line"/>
      <point x="229" y="1073" type="line"/>
      <point x="38" y="849" type="line"/>
      <point x="353" y="534" type="line"/>
      <point x="38" y="219" type="line"/>
    </contour>
    <contour>
      <point x="839" y="-5" type="line"/>
      <point x="1265" y="399" type="line"/>
      <point x="1265" y="669" type="line"/>
      <point x="839" y="1073" type="line"/>
      <point x="648" y="849" type="line"/>
      <point x="963" y="534" type="line"/>
      <point x="648" y="219" type="line"/>
    </contour>
  </outline>
</glyph>
<glyph name="threequarters" format="1">
  <advance width="1830"/>
  <unicode hex="00BE"/>
  <outline>
    <contour>
      <point x="350" y="822" type="curve" smooth="yes"/>
      <point x="288" y="822"/>
      <point x="235" y="826"/>
      <point x="191" y="833" type="curve" smooth="yes"/>
      <point x="147" y="840"/>
      <point x="107" y="855"/>
      <point x="72" y="878" type="curve"/>
      <point x="72" y="1081" type="line"/>
      <point x="71" y="1079" type="line"/>
      <point x="142" y="1022"/>
      <point x="214" y="993"/>
      <point x="288" y="993" type="curve" smooth="yes"/>
      <point x="322" y="993"/>
      <point x="352" y="1000"/>
      <point x="379" y="1014" type="curve" smooth="yes"/>
      <point x="406" y="1028"/>
      <point x="419" y="1050"/>
      <point x="419" y="1080" type="curve" smooth="yes"/>
      <point x="419" y="1115"/>
      <point x="404" y="1140"/>
      <point x="375" y="1155" type="curve" smooth="yes"/>
      <point x="346" y="1170"/>
      <point x="312" y="1178"/>
      <point x="273" y="1178" type="curve" smooth="yes"/>
      <point x="258" y="1178"/>
      <point x="242" y="1176"/>
      <point x="226" y="1172" type="curve" smooth="yes"/>
      <point x="210" y="1168"/>
      <point x="201" y="1166"/>
      <point x="198" y="1166" type="curve" smooth="yes"/>
      <point x="193" y="1166"/>
      <point x="189" y="1167"/>
      <point x="187" y="1168" type="curve"/>
      <point x="186" y="1171" type="line"/>
      <point x="186" y="1264" type="line"/>
      <point x="386" y="1434" type="line"/>
      <point x="386" y="1440" type="line"/>
      <point x="258" y="1440" type="line" smooth="yes"/>
      <point x="243" y="1440"/>
      <point x="231" y="1439"/>
      <point x="222" y="1436" type="curve" smooth="yes"/>
      <point x="213" y="1433"/>
      <point x="206" y="1427"/>
      <point x="200" y="1417" type="curve" smooth="yes"/>
      <point x="194" y="1407"/>
      <point x="190" y="1399"/>
      <point x="188" y="1393" type="curve" smooth="yes"/>
      <point x="186" y="1387"/>
      <point x="183" y="1375"/>
      <point x="178" y="1357" type="curve"/>
      <point x="65" y="1358" type="line"/>
      <point x="65" y="1623" type="line"/>
      <point x="691" y="1623" type="line"/>
      <point x="691" y="1469" type="line" smooth="yes"/>
      <point x="691" y="1468"/>
      <point x="635" y="1422"/>
      <point x="524" y="1331" type="curve"/>
      <point x="581" y="1326"/>
      <point x="630" y="1302"/>
      <point x="670" y="1258" type="curve" smooth="yes"/>
      <point x="710" y="1214"/>
      <point x="730" y="1165"/>
      <point x="730" y="1110" type="curve" smooth="yes"/>
      <point x="730" y="1018"/>
      <point x="696" y="947"/>
      <point x="628" y="897" type="curve" smooth="yes"/>
      <point x="560" y="847"/>
      <point x="467" y="822"/>
    </contour>
    <contour>
      <point x="1288" y="-3" type="line"/>
      <point x="1702" y="-3" type="line"/>
      <point x="1702" y="166" type="line"/>
      <point x="1630" y="166" type="line"/>
      <point x="1630" y="243" type="line"/>
      <point x="1764" y="243" type="line"/>
      <point x="1764" y="394" type="line"/>
      <point x="1631" y="393" type="line"/>
      <point x="1631" y="784" type="line"/>
      <point x="1373" y="785" type="line"/>
      <point x="1049" y="401" type="line"/>
      <point x="1049" y="243" type="line"/>
      <point x="1362" y="243" type="line"/>
      <point x="1362" y="166" type="line"/>
      <point x="1288" y="166" type="line"/>
    </contour>
    <contour>
      <point x="490" y="-2" type="line"/>
      <point x="843" y="-2" type="line"/>
      <point x="1345" y="1621" type="line"/>
      <point x="981" y="1621" type="line"/>
    </contour>
    <contour>
      <point x="1362" y="394" type="line"/>
      <point x="1251" y="395" type="line"/>
      <point x="1362" y="532" type="line"/>
    </contour>
  </outline>
</glyph>
<glyph name="Oslash" format="1">
  <advance width="1777"/>
  <unicode hex="00D8"/>
  <outline>
    <contour>
      <point x="720" y="436" type="line"/>
      <point x="713" y="451"/>
      <point x="707" y="467"/>
      <point x="702" y="484" type="curve" smooth="yes"/>
      <point x="697" y="501"/>
      <point x="693" y="521"/>
      <point x="690" y="543" type="curve" smooth="yes"/>
      <point x="687" y="565"/>
      <point x="684" y="583"/>
      <point x="682" y="597" type="curve" smooth="yes"/>
      <point x="680" y="611"/>
      <point x="679" y="632"/>
      <point x="678" y="660" type="curve" smooth="yes"/>
      <point x="677" y="688"/>
      <point x="677" y="706"/>
      <point x="677" y="714" type="curve" smooth="yes"/>
      <point x="677" y="772" type="line"/>
      <point x="677" y="819" type="line"/>
      <point x="677" y="854" type="line" smooth="yes"/>
      <point x="676" y="875"/>
      <point x="676" y="897"/>
      <point x="677" y="920" type="curve" smooth="yes"/>
      <point x="678" y="943"/>
      <point x="679" y="967"/>
      <point x="680" y="991" type="curve" smooth="yes"/>
      <point x="681" y="1015"/>
      <point x="683" y="1039"/>
      <point x="687" y="1063" type="curve" smooth="yes"/>
      <point x="691" y="1087"/>
      <point x="696" y="1110"/>
      <point x="702" y="1132" type="curve" smooth="yes"/>
      <point x="708" y="1154"/>
      <point x="716" y="1175"/>
      <point x="727" y="1194" type="curve" smooth="yes"/>
      <point x="738" y="1213"/>
      <point x="750" y="1230"/>
      <point x="764" y="1244" type="curve" smooth="yes"/>
      <point x="778" y="1258"/>
      <point x="795" y="1269"/>
      <point x="816" y="1277" type="curve" smooth="yes"/>
      <point x="837" y="1285"/>
      <point x="860" y="1289"/>
      <point x="886" y="1289" type="curve"/>
      <point x="888" y="1294" type="line"/>
      <point x="895" y="1294"/>
      <point x="905" y="1293"/>
      <point x="918" y="1292" type="curve"/>
    </contour>
    <contour>
      <point x="884" y="309" type="curve"/>
      <point x="886" y="312" type="line"/>
      <point x="874" y="312"/>
      <point x="865" y="312"/>
      <point x="860" y="313" type="curve"/>
      <point x="1054" y="1178" type="line"/>
      <point x="1061" y="1163"/>
      <point x="1067" y="1147"/>
      <point x="1072" y="1130" type="curve" smooth="yes"/>
      <point x="1077" y="1113"/>
      <point x="1081" y="1094"/>
      <point x="1084" y="1074" type="curve" smooth="yes"/>
      <point x="1087" y="1054"/>
      <point x="1089" y="1036"/>
      <point x="1091" y="1021" type="curve" smooth="yes"/>
      <point x="1093" y="1006"/>
      <point x="1094" y="987"/>
      <point x="1095" y="963" type="curve" smooth="yes"/>
      <point x="1096" y="939"/>
      <point x="1096" y="922"/>
      <point x="1096" y="911" type="curve" smooth="yes"/>
      <point x="1096" y="857" type="line"/>
      <point x="1096" y="812" type="line"/>
      <point x="1096" y="782" type="line" smooth="yes"/>
      <point x="1097" y="759"/>
      <point x="1097" y="735"/>
      <point x="1096" y="710" type="curve" smooth="yes"/>
      <point x="1095" y="685"/>
      <point x="1094" y="659"/>
      <point x="1093" y="633" type="curve" smooth="yes"/>
      <point x="1092" y="607"/>
      <point x="1089" y="581"/>
      <point x="1085" y="555" type="curve" smooth="yes"/>
      <point x="1081" y="529"/>
      <point x="1076" y="504"/>
      <point x="1070" y="480" type="curve" smooth="yes"/>
      <point x="1064" y="456"/>
      <point x="1056" y="433"/>
      <point x="1045" y="412" type="curve" smooth="yes"/>
      <point x="1034" y="391"/>
      <point x="1021" y="373"/>
      <point x="1007" y="358" type="curve" smooth="yes"/>
      <point x="993" y="343"/>
      <point x="975" y="331"/>
      <point x="954" y="322" type="curve" smooth="yes"/>
      <point x="933" y="313"/>
      <point x="910" y="309"/>
    </contour>
    <contour>
      <point x="744" y="-194" type="line"/>
      <point x="782" y="-23" type="line"/>
      <point x="816" y="-27"/>
      <point x="851" y="-29"/>
      <point x="886" y="-29" type="curve" smooth="yes"/>
      <point x="1039" y="-29"/>
      <point x="1178" y="7"/>
      <point x="1303" y="80" type="curve" smooth="yes"/>
      <point x="1428" y="153"/>
      <point x="1526" y="253"/>
      <point x="1598" y="381" type="curve" smooth="yes"/>
      <point x="1670" y="509"/>
      <point x="1706" y="651"/>
      <point x="1706" y="808" type="curve" smooth="yes"/>
      <point x="1706" y="1015"/>
      <point x="1656" y="1189"/>
      <point x="1556" y="1330" type="curve" smooth="yes"/>
      <point x="1456" y="1471"/>
      <point x="1321" y="1566"/>
      <point x="1152" y="1616" type="curve"/>
      <point x="1188" y="1774" type="line"/>
      <point x="1035" y="1804" type="line"/>
      <point x="998" y="1646" type="line"/>
      <point x="956" y="1651"/>
      <point x="919" y="1653"/>
      <point x="887" y="1653" type="curve" smooth="yes"/>
      <point x="730" y="1653"/>
      <point x="590" y="1620"/>
      <point x="467" y="1553" type="curve" smooth="yes"/>
      <point x="344" y="1486"/>
      <point x="247" y="1388"/>
      <point x="175" y="1259" type="curve" smooth="yes"/>
      <point x="103" y="1130"/>
      <point x="67" y="979"/>
      <point x="67" y="807" type="curve" smooth="yes"/>
      <point x="67" y="618"/>
      <point x="118" y="452"/>
      <point x="220" y="308" type="curve" smooth="yes"/>
      <point x="322" y="164"/>
      <point x="456" y="65"/>
      <point x="622" y="10" type="curve"/>
      <point x="582" y="-155" type="line"/>
    </contour>
    <contour>
      <point x="865" y="1592" type="move" name="top"/>
    </contour>
  </outline>
</glyph>
<glyph name="oslash" format="1">
  <advance width="1343"/>
  <unicode hex="00F8"/>
  <outline>
    <contour>
      <point x="670" y="294" type="curve" smooth="yes"/>
      <point x="579" y="294"/>
      <point x="533" y="378"/>
      <point x="533" y="545" type="curve"/>
      <point x="535" y="545" type="line"/>
      <point x="535" y="579"/>
      <point x="536" y="608"/>
      <point x="539" y="632" type="curve" smooth="yes"/>
      <point x="542" y="656"/>
      <point x="548" y="680"/>
      <point x="557" y="705" type="curve" smooth="yes"/>
      <point x="566" y="730"/>
      <point x="580" y="749"/>
      <point x="599" y="762" type="curve" smooth="yes"/>
      <point x="618" y="775"/>
      <point x="642" y="781"/>
      <point x="671" y="781" type="curve" smooth="yes"/>
      <point x="700" y="781"/>
      <point x="724" y="775"/>
      <point x="743" y="762" type="curve" smooth="yes"/>
      <point x="762" y="749"/>
      <point x="776" y="730"/>
      <point x="785" y="705" type="curve" smooth="yes"/>
      <point x="794" y="680"/>
      <point x="800" y="656"/>
      <point x="803" y="632" type="curve" smooth="yes"/>
      <point x="806" y="608"/>
      <point x="807" y="579"/>
      <point x="807" y="545" type="curve" smooth="yes"/>
      <point x="807" y="378"/>
      <point x="761" y="294"/>
    </contour>
    <contour>
      <point x="673" y="-18" type="curve" smooth="yes"/>
      <point x="792" y="-18"/>
      <point x="896" y="4"/>
      <point x="986" y="48" type="curve" smooth="yes"/>
      <point x="1076" y="92"/>
      <point x="1147" y="157"/>
      <point x="1198" y="243" type="curve" smooth="yes"/>
      <point x="1249" y="329"/>
      <point x="1274" y="430"/>
      <point x="1274" y="547" type="curve" smooth="yes"/>
      <point x="1274" y="720"/>
      <point x="1220" y="854"/>
      <point x="1113" y="949" type="curve" smooth="yes"/>
      <point x="1006" y="1044"/>
      <point x="859" y="1091"/>
      <point x="672" y="1091" type="curve" smooth="yes"/>
      <point x="485" y="1091"/>
      <point x="338" y="1044"/>
      <point x="231" y="949" type="curve" smooth="yes"/>
      <point x="124" y="854"/>
      <point x="70" y="720"/>
      <point x="70" y="547" type="curve"/>
      <point x="72" y="547" type="line"/>
      <point x="72" y="430"/>
      <point x="97" y="329"/>
      <point x="148" y="243" type="curve" smooth="yes"/>
      <point x="199" y="157"/>
      <point x="270" y="92"/>
      <point x="360" y="48" type="curve" smooth="yes"/>
      <point x="450" y="4"/>
      <point x="554" y="-18"/>
    </contour>
    <contour>
      <point x="358" y="-104" type="line"/>
      <point x="1059" y="1142" type="line"/>
      <point x="972" y="1192" type="line"/>
      <point x="271" y="-54" type="line"/>
    </contour>
    <contour>
      <point x="636" y="1072" type="move" name="top"/>
    </contour>
  </outline>
</glyph>
<glyph name="thorn" format="1">
  <advance width="1406"/>
  <unicode hex="00FE"/>
  <outline>
    <contour>
      <point x="44" y="-398" type="line"/>
      <point x="718" y="-397" type="line"/>
      <point x="718" y="-96" type="line"/>
      <point x="607" y="-96" type="line"/>
      <point x="607" y="119" type="line"/>
      <point x="636" y="84"/>
      <point x="678" y="54"/>
      <point x="733" y="29" type="curve" smooth="yes"/>
      <point x="788" y="4"/>
      <point x="850" y="-9"/>
      <point x="919" y="-9" type="curve" smooth="yes"/>
      <point x="992" y="-9"/>
      <point x="1058" y="7"/>
      <point x="1117" y="38" type="curve" smooth="yes"/>
      <point x="1176" y="69"/>
      <point x="1224" y="111"/>
      <point x="1260" y="163" type="curve" smooth="yes"/>
      <point x="1296" y="215"/>
      <point x="1324" y="273"/>
      <point x="1343" y="338" type="curve" smooth="yes"/>
      <point x="1362" y="403"/>
      <point x="1372" y="470"/>
      <point x="1372" y="540" type="curve" smooth="yes"/>
      <point x="1372" y="611"/>
      <point x="1362" y="679"/>
      <point x="1342" y="743" type="curve" smooth="yes"/>
      <point x="1322" y="807"/>
      <point x="1293" y="864"/>
      <point x="1256" y="915" type="curve" smooth="yes"/>
      <point x="1219" y="966"/>
      <point x="1171" y="1006"/>
      <point x="1113" y="1036" type="curve" smooth="yes"/>
      <point x="1055" y="1066"/>
      <point x="991" y="1081"/>
      <point x="920" y="1081" type="curve" smooth="yes"/>
      <point x="859" y="1081"/>
      <point x="806" y="1071"/>
      <point x="761" y="1051" type="curve" smooth="yes"/>
      <point x="716" y="1031"/>
      <point x="672" y="999"/>
      <point x="629" y="954" type="curve"/>
      <point x="619" y="954" type="line"/>
      <point x="619" y="1445" type="line"/>
      <point x="55" y="1445" type="line"/>
      <point x="55" y="1139" type="line"/>
      <point x="129" y="1139" type="line"/>
      <point x="129" y="-96" type="line"/>
      <point x="45" y="-96" type="line"/>
    </contour>
    <contour>
      <point x="610" y="404" type="line"/>
      <point x="608" y="415" type="line"/>
      <point x="608" y="643" type="line"/>
      <point x="609" y="646"/>
      <point x="610" y="649"/>
      <point x="611" y="653" type="curve" smooth="yes"/>
      <point x="612" y="657"/>
      <point x="616" y="664"/>
      <point x="623" y="675" type="curve" smooth="yes"/>
      <point x="630" y="686"/>
      <point x="638" y="696"/>
      <point x="647" y="704" type="curve" smooth="yes"/>
      <point x="656" y="712"/>
      <point x="669" y="719"/>
      <point x="685" y="726" type="curve" smooth="yes"/>
      <point x="701" y="733"/>
      <point x="719" y="736"/>
      <point x="740" y="736" type="curve" smooth="yes"/>
      <point x="849" y="736"/>
      <point x="903" y="671"/>
      <point x="903" y="542" type="curve" smooth="yes"/>
      <point x="903" y="513"/>
      <point x="900" y="485"/>
      <point x="895" y="459" type="curve" smooth="yes"/>
      <point x="890" y="433"/>
      <point x="882" y="408"/>
      <point x="870" y="384" type="curve" smooth="yes"/>
      <point x="858" y="360"/>
      <point x="841" y="341"/>
      <point x="818" y="327" type="curve" smooth="yes"/>
      <point x="795" y="313"/>
      <point x="768" y="306"/>
      <point x="736" y="306" type="curve" smooth="yes"/>
      <point x="715" y="306"/>
      <point x="696" y="310"/>
      <point x="679" y="317" type="curve" smooth="yes"/>
      <point x="662" y="324"/>
      <point x="649" y="333"/>
      <point x="640" y="344" type="curve" smooth="yes"/>
      <point x="631" y="355"/>
      <point x="624" y="365"/>
      <point x="618" y="375" type="curve" smooth="yes"/>
      <point x="612" y="385"/>
      <point x="608" y="394"/>
      <point x="607" y="401" type="curve"/>
    </contour>
  </outline>
</glyph>
<glyph name="ldot" format="1">
  <advance width="1263"/>
  <unicode hex="0140"/>
  <outline>
    <contour>
      <point x="670" y="304" type="line"/>
      <point x="670" y="1560" type="line"/>
      <point x="50" y="1495" type="line"/>
      <point x="50" y="1222" type="line"/>
      <point x="175" y="1222" type="line"/>
      <point x="175" y="304" type="line"/>
      <point x="60" y="304" type="line"/>
      <point x="60" y="0" type="line"/>
      <point x="768" y="0" type="line"/>
      <point x="768" y="304" type="line"/>
    </contour>
    <contour>
      <point x="1071" y="514" type="curve" smooth="yes"/>
      <point x="1231" y="514"/>
      <point x="1357" y="608"/>
      <point x="1357" y="764" type="curve" smooth="yes"/>
      <point x="1357" y="914"/>
      <point x="1238" y="1009"/>
      <point x="1070" y="1009" type="curve" smooth="yes"/>
      <point x="909" y="1009"/>
      <point x="792" y="915"/>
      <point x="792" y="764" type="curve" smooth="yes"/>
      <point x="792" y="609"/>
      <point x="916" y="514"/>
    </contour>
  </outline>
</glyph>
<glyph name="Lslash" format="1">
  <advance width="1398"/>
  <unicode hex="0141"/>
  <outline>
    <contour>
      <point x="777" y="359" type="line"/>
      <point x="777" y="1270" type="line"/>
      <point x="931" y="1270" type="line"/>
      <point x="931" y="1622" type="line"/>
      <point x="63" y="1622" type="line"/>
      <point x="63" y="1270" type="line"/>
      <point x="210" y="1270" type="line"/>
      <point x="210" y="359" type="line"/>
      <point x="67" y="359" type="line"/>
      <point x="68" y="0" type="line"/>
      <point x="1341" y="0" type="line"/>
      <point x="1341" y="709" type="line"/>
      <point x="1055" y="709" type="line"/>
      <point x="968" y="359" type="line"/>
    </contour>
    <contour>
      <point x="901" y="1160" type="line"/>
      <point x="32" y="656" type="line"/>
      <point x="132" y="478" type="line"/>
      <point x="1000" y="981" type="line"/>
    </contour>
  </outline>
</glyph>
<glyph name="oe" format="1">
  <advance width="1988"/>
  <unicode hex="0153"/>
  <outline>
    <contour>
      <point x="676" y="-34" type="curve"/>
      <point x="676" y="-26" type="line"/>
      <point x="720" y="-26"/>
      <point x="762" y="-21"/>
      <point x="802" y="-11" type="curve" smooth="yes"/>
      <point x="842" y="-1"/>
      <point x="875" y="10"/>
      <point x="900" y="22" type="curve" smooth="yes"/>
      <point x="925" y="34"/>
      <point x="948" y="48"/>
      <point x="970" y="64" type="curve" smooth="yes"/>
      <point x="992" y="80"/>
      <point x="1006" y="91"/>
      <point x="1012" y="97" type="curve" smooth="yes"/>
      <point x="1018" y="103"/>
      <point x="1023" y="108"/>
      <point x="1026" y="112" type="curve"/>
      <point x="1038" y="97" type="line"/>
      <point x="1047" y="88"/>
      <point x="1060" y="76"/>
      <point x="1078" y="62" type="curve" smooth="yes"/>
      <point x="1096" y="48"/>
      <point x="1117" y="34"/>
      <point x="1141" y="20" type="curve" smooth="yes"/>
      <point x="1165" y="6"/>
      <point x="1195" y="-6"/>
      <point x="1231" y="-16" type="curve" smooth="yes"/>
      <point x="1267" y="-26"/>
      <point x="1305" y="-31"/>
      <point x="1344" y="-31" type="curve" smooth="yes"/>
      <point x="1451" y="-32"/>
      <point x="1547" y="-21"/>
      <point x="1632" y="1" type="curve" smooth="yes"/>
      <point x="1717" y="23"/>
      <point x="1804" y="61"/>
      <point x="1893" y="114" type="curve"/>
      <point x="1893" y="352" type="line"/>
      <point x="1586" y="352" type="line"/>
      <point x="1585" y="303"/>
      <point x="1573" y="267"/>
      <point x="1551" y="244" type="curve" smooth="yes"/>
      <point x="1529" y="221"/>
      <point x="1494" y="209"/>
      <point x="1446" y="209" type="curve" smooth="yes"/>
      <point x="1391" y="209"/>
      <point x="1348" y="231"/>
      <point x="1316" y="275" type="curve" smooth="yes"/>
      <point x="1284" y="319"/>
      <point x="1268" y="372"/>
      <point x="1268" y="434" type="curve"/>
      <point x="1870" y="434" type="line" smooth="yes"/>
      <point x="1881" y="434"/>
      <point x="1888" y="435"/>
      <point x="1891" y="436" type="curve"/>
      <point x="1895" y="438"/>
      <point x="1900" y="447"/>
      <point x="1907" y="462" type="curve"/>
      <point x="1910" y="492"/>
      <point x="1912" y="518"/>
      <point x="1912" y="541" type="curve" smooth="yes"/>
      <point x="1912" y="641"/>
      <point x="1891" y="731"/>
      <point x="1849" y="811" type="curve" smooth="yes"/>
      <point x="1807" y="891"/>
      <point x="1744" y="955"/>
      <point x="1659" y="1004" type="curve" smooth="yes"/>
      <point x="1574" y="1053"/>
      <point x="1474" y="1077"/>
      <point x="1359" y="1077" type="curve" smooth="yes"/>
      <point x="1316" y="1077"/>
      <point x="1275" y="1072"/>
      <point x="1236" y="1063" type="curve" smooth="yes"/>
      <point x="1197" y="1054"/>
      <point x="1166" y="1044"/>
      <point x="1143" y="1033" type="curve" smooth="yes"/>
      <point x="1120" y="1022"/>
      <point x="1099" y="1009"/>
      <point x="1080" y="995" type="curve" smooth="yes"/>
      <point x="1061" y="981"/>
      <point x="1049" y="971"/>
      <point x="1044" y="965" type="curve" smooth="yes"/>
      <point x="1039" y="959"/>
      <point x="1035" y="954"/>
      <point x="1032" y="951" type="curve"/>
      <point x="1018" y="964" type="line" smooth="yes"/>
      <point x="1009" y="973"/>
      <point x="994" y="983"/>
      <point x="974" y="995" type="curve" smooth="yes"/>
      <point x="954" y="1007"/>
      <point x="931" y="1019"/>
      <point x="905" y="1031" type="curve" smooth="yes"/>
      <point x="879" y="1043"/>
      <point x="845" y="1053"/>
      <point x="804" y="1062" type="curve" smooth="yes"/>
      <point x="763" y="1071"/>
      <point x="721" y="1075"/>
      <point x="677" y="1075" type="curve" smooth="yes"/>
      <point x="490" y="1075"/>
      <point x="343" y="1028"/>
      <point x="236" y="933" type="curve" smooth="yes"/>
      <point x="129" y="838"/>
      <point x="75" y="704"/>
      <point x="75" y="531" type="curve" smooth="yes"/>
      <point x="75" y="414"/>
      <point x="100" y="313"/>
      <point x="151" y="227" type="curve" smooth="yes"/>
      <point x="202" y="141"/>
      <point x="273" y="76"/>
      <point x="363" y="32" type="curve" smooth="yes"/>
      <point x="453" y="-12"/>
      <point x="557" y="-34"/>
    </contour>
    <contour>
      <point x="674" y="317" type="curve" smooth="yes"/>
      <point x="583" y="317"/>
      <point x="537" y="387"/>
      <point x="537" y="528" type="curve"/>
      <point x="539" y="529" type="line"/>
      <point x="539" y="557"/>
      <point x="540" y="581"/>
      <point x="543" y="601" type="curve" smooth="yes"/>
      <point x="546" y="621"/>
      <point x="552" y="641"/>
      <point x="561" y="661" type="curve" smooth="yes"/>
      <point x="570" y="681"/>
      <point x="584" y="696"/>
      <point x="603" y="707" type="curve" smooth="yes"/>
      <point x="622" y="718"/>
      <point x="646" y="723"/>
      <point x="675" y="723" type="curve" smooth="yes"/>
      <point x="704" y="723"/>
      <point x="728" y="718"/>
      <point x="747" y="707" type="curve" smooth="yes"/>
      <point x="766" y="696"/>
      <point x="780" y="680"/>
      <point x="789" y="660" type="curve" smooth="yes"/>
      <point x="798" y="640"/>
      <point x="804" y="620"/>
      <point x="807" y="600" type="curve" smooth="yes"/>
      <point x="810" y="580"/>
      <point x="811" y="556"/>
      <point x="811" y="528" type="curve" smooth="yes"/>
      <point x="811" y="387"/>
      <point x="765" y="317"/>
    </contour>
    <contour>
      <point x="1267" y="607" type="line"/>
      <point x="1267" y="638" type="line" smooth="yes"/>
      <point x="1267" y="679"/>
      <point x="1276" y="715"/>
      <point x="1294" y="747" type="curve" smooth="yes"/>
      <point x="1312" y="779"/>
      <point x="1339" y="795"/>
      <point x="1375" y="795" type="curve" smooth="yes"/>
      <point x="1400" y="795"/>
      <point x="1420" y="789"/>
      <point x="1436" y="777" type="curve" smooth="yes"/>
      <point x="1452" y="765"/>
      <point x="1463" y="748"/>
      <point x="1469" y="726" type="curve" smooth="yes"/>
      <point x="1475" y="704"/>
      <point x="1479" y="684"/>
      <point x="1481" y="667" type="curve" smooth="yes"/>
      <point x="1483" y="650"/>
      <point x="1483" y="630"/>
      <point x="1482" y="607" type="curve"/>
    </contour>
    <contour>
      <point x="955" y="1072" type="move" name="top"/>
    </contour>
  </outline>
</glyph>
<glyph name="circumflex" format="1">
  <advance width="944"/>
  <unicode hex="02C6"/>
  <outline>
    <contour>
      <point x="213" y="1233" type="line"/>
      <point x="468" y="1478" type="line"/>
      <point x="723" y="1233" type="line"/>
      <point x="877" y="1334" type="line"/>
      <point x="603" y="1710" type="line"/>
      <point x="332" y="1710" type="line"/>
      <point x="59" y="1334" type="line"/>
    </contour>
    <contour>
      <point x="458" y="1072" type="move" name="_top"/>
    </contour>
  </outline>
</glyph>
<glyph name="caron" format="1">
  <advance width="922"/>
  <unicode hex="02C7"/>
  <outline>
    <contour>
      <point x="321" y="1250" type="line"/>
      <point x="592" y="1250" type="line"/>
      <point x="866" y="1626" type="line"/>
      <point x="712" y="1727" type="line"/>
      <point x="457" y="1482" type="line"/>
      <point x="202" y="1727" type="line"/>
      <point x="48" y="1626" type="line"/>
    </contour>
    <contour>
      <point x="463" y="1072" type="move" name="_top"/>
    </contour>
  </outline>
</glyph>
<glyph name="tilde" format="1">
  <advance width="1000"/>
  <unicode hex="02DC"/>
  <outline>
    <contour>
      <point x="674" y="1623" type="line" smooth="yes"/>
      <point x="537" y="1623"/>
      <point x="418" y="1497"/>
      <point x="319" y="1497" type="curve" smooth="yes"/>
      <point x="293" y="1497"/>
      <point x="272" y="1508"/>
      <point x="168" y="1609" type="curve"/>
      <point x="54" y="1534" type="line"/>
      <point x="143" y="1408"/>
      <point x="178" y="1246"/>
      <point x="329" y="1246" type="curve" smooth="yes"/>
      <point x="439" y="1246"/>
      <point x="596" y="1366"/>
      <point x="685" y="1366" type="curve" smooth="yes"/>
      <point x="713" y="1366"/>
      <point x="730" y="1353"/>
      <point x="831" y="1257" type="curve"/>
      <point x="944" y="1331" type="line"/>
      <point x="855" y="1456"/>
      <point x="818" y="1623"/>
      <point x="672" y="1623" type="curve" smooth="yes"/>
    </contour>
    <contour>
      <point x="499" y="1072" type="move" name="_top"/>
    </contour>
  </outline>
</glyph>
<glyph name="uni030F" format="1">
  <advance width="1031"/>
  <unicode hex="030F"/>
  <outline>
    <contour>
      <point x="473" y="1229" type="line"/>
      <point x="633" y="1288" type="line"/>
      <point x="310" y="1895" type="line"/>
      <point x="50" y="1704" type="line"/>
    </contour>
    <contour>
      <point x="792" y="1228" type="line"/>
      <point x="957" y="1288" type="line"/>
      <point x="804" y="1914" type="line"/>
      <point x="504" y="1795" type="line"/>
    </contour>
    <contour>
      <point x="397.5" y="1072" type="move" name="_top"/>
    </contour>
  </outline>
</glyph>
<glyph name="trademark" format="1">
  <advance width="2658"/>
  <unicode hex="2122"/>
  <outline>
    <contour>
      <point x="1121" y="534" type="line"/>
      <point x="1557" y="534" type="line"/>
      <point x="1557" y="778" type="line"/>
      <point x="1536" y="778"/>
      <point x="1518" y="780"/>
      <point x="1504" y="785" type="curve" smooth="yes"/>
      <point x="1490" y="790"/>
      <point x="1479" y="795"/>
      <point x="1472" y="800" type="curve" smooth="yes"/>
      <point x="1465" y="805"/>
      <point x="1459" y="814"/>
      <point x="1455" y="826" type="curve" smooth="yes"/>
      <point x="1451" y="838"/>
      <point x="1449" y="848"/>
      <point x="1449" y="855" type="curve" smooth="yes"/>
      <point x="1449" y="891" type="line"/>
      <point x="1448" y="895" type="line"/>
      <point x="1448" y="1205" type="line"/>
      <point x="1727" y="537" type="line"/>
      <point x="1915" y="537" type="line"/>
      <point x="2144" y="1191" type="line"/>
      <point x="2144" y="783" type="line"/>
      <point x="2061" y="783" type="line"/>
      <point x="2061" y="537" type="line"/>
      <point x="2599" y="537" type="line"/>
      <point x="2599" y="783" type="line"/>
      <point x="2496" y="783" type="line"/>
      <point x="2496" y="1390" type="line"/>
      <point x="2594" y="1390" type="line"/>
      <point x="2594" y="1623" type="line"/>
      <point x="2069" y="1623" type="line"/>
      <point x="1885" y="1110" type="line"/>
      <point x="1677" y="1623" type="line"/>
      <point x="1119" y="1623" type="line"/>
      <point x="1119" y="1383" type="line"/>
      <point x="1231" y="1383" type="line"/>
      <point x="1231" y="944" type="line" smooth="yes"/>
      <point x="1231" y="917"/>
      <point x="1231" y="897"/>
      <point x="1230" y="884" type="curve" smooth="yes"/>
      <point x="1229" y="871"/>
      <point x="1227" y="856"/>
      <point x="1224" y="839" type="curve" smooth="yes"/>
      <point x="1221" y="822"/>
      <point x="1215" y="809"/>
      <point x="1207" y="801" type="curve" smooth="yes"/>
      <point x="1199" y="793"/>
      <point x="1188" y="786"/>
      <point x="1174" y="780" type="curve" smooth="yes"/>
      <point x="1160" y="774"/>
      <point x="1142" y="771"/>
      <point x="1121" y="771" type="curve"/>
    </contour>
    <contour>
      <point x="240" y="537" type="line"/>
      <point x="836" y="537" type="line"/>
      <point x="836" y="778" type="line"/>
      <point x="726" y="778" type="line"/>
      <point x="726" y="1382" type="line"/>
      <point x="797" y="1382" type="line"/>
      <point x="839" y="1183" type="line"/>
      <point x="1027" y="1183" type="line"/>
      <point x="1027" y="1622" type="line"/>
      <point x="52" y="1622" type="line"/>
      <point x="52" y="1183" type="line"/>
      <point x="240" y="1183" type="line"/>
      <point x="283" y="1382" type="line"/>
      <point x="350" y="1382" type="line"/>
      <point x="350" y="778" type="line"/>
      <point x="240" y="778" type="line"/>
    </contour>
  </outline>
</glyph>
<glyph name="uniFB00" format="1">
  <advance width="1741"/>
  <unicode hex="FB00"/>
  <outline>
    <contour>
      <point x="1012" y="1207" type="line"/>
      <point x="1013" y="1119"/>
      <point x="1014" y="1074"/>
      <point x="1014" y="1072" type="curve"/>
      <point x="619" y="1072" type="line"/>
      <point x="615" y="1144"/>
      <point x="622" y="1194"/>
      <point x="640" y="1222" type="curve" smooth="yes"/>
      <point x="658" y="1250"/>
      <point x="688" y="1264"/>
      <point x="730" y="1264" type="curve" smooth="yes"/>
      <point x="755" y="1264"/>
      <point x="787" y="1260"/>
      <point x="826" y="1251" type="curve"/>
      <point x="826" y="1562" type="line"/>
      <point x="817" y="1565"/>
      <point x="803" y="1569"/>
      <point x="785" y="1574" type="curve" smooth="yes"/>
      <point x="767" y="1579"/>
      <point x="731" y="1586"/>
      <point x="677" y="1595" type="curve" smooth="yes"/>
      <point x="623" y="1604"/>
      <point x="569" y="1608"/>
      <point x="516" y="1608" type="curve" smooth="yes"/>
      <point x="263" y="1608"/>
      <point x="136" y="1474"/>
      <point x="136" y="1205" type="curve"/>
      <point x="137" y="1117"/>
      <point x="138" y="1072"/>
      <point x="138" y="1070" type="curve"/>
      <point x="55" y="1070" type="line"/>
      <point x="55" y="759" type="line"/>
      <point x="139" y="759" type="line"/>
      <point x="139" y="303" type="line"/>
      <point x="55" y="303" type="line"/>
      <point x="55" y="-2" type="line"/>
      <point x="735" y="-2" type="line"/>
      <point x="735" y="303" type="line"/>
      <point x="625" y="303" type="line"/>
      <point x="625" y="759" type="line"/>
      <point x="1014" y="759" type="line"/>
      <point x="1014" y="303" type="line"/>
      <point x="930" y="303" type="line"/>
      <point x="930" y="-2" type="line"/>
      <point x="1610" y="-2" type="line"/>
      <point x="1610" y="303" type="line"/>
      <point x="1500" y="303" type="line"/>
      <point x="1500" y="759" type="line"/>
      <point x="1672" y="759" type="line"/>
      <point x="1672" y="1070" type="line"/>
      <point x="1493" y="1070" type="line"/>
      <point x="1489" y="1142"/>
      <point x="1496" y="1192"/>
      <point x="1514" y="1220" type="curve" smooth="yes"/>
      <point x="1532" y="1248"/>
      <point x="1562" y="1262"/>
      <point x="1604" y="1262" type="curve" smooth="yes"/>
      <point x="1629" y="1262"/>
      <point x="1661" y="1258"/>
      <point x="1700" y="1249" type="curve"/>
      <point x="1700" y="1560" type="line"/>
      <point x="1691" y="1563"/>
      <point x="1677" y="1567"/>
      <point x="1659" y="1572" type="curve" smooth="yes"/>
      <point x="1641" y="1577"/>
      <point x="1605" y="1584"/>
      <point x="1551" y="1593" type="curve" smooth="yes"/>
      <point x="1497" y="1602"/>
      <point x="1443" y="1606"/>
      <point x="1390" y="1606" type="curve" smooth="yes"/>
      <point x="1137" y="1606"/>
      <point x="1010" y="1472"/>
      <point x="1010" y="1203" type="curve"/>
    </contour>
  </outline>
</glyph>
<glyph name="uniFB02" format="1">
  <advance width="1633"/>
  <unicode hex="FB02"/>
  <outline>
    <contour>
      <point x="1514" y="1630" type="line"/>
      <point x="935" y="1630" type="line" smooth="yes"/>
      <point x="921" y="1630"/>
      <point x="897" y="1630"/>
      <point x="863" y="1631" type="curve" smooth="yes"/>
      <point x="829" y="1632"/>
      <point x="799" y="1633"/>
      <point x="773" y="1634" type="curve" smooth="yes"/>
      <point x="747" y="1635"/>
      <point x="714" y="1634"/>
      <point x="674" y="1632" type="curve" smooth="yes"/>
      <point x="634" y="1630"/>
      <point x="598" y="1627"/>
      <point x="566" y="1623" type="curve" smooth="yes"/>
      <point x="534" y="1619"/>
      <point x="499" y="1612"/>
      <point x="461" y="1603" type="curve" smooth="yes"/>
      <point x="423" y="1594"/>
      <point x="389" y="1583"/>
      <point x="360" y="1569" type="curve" smooth="yes"/>
      <point x="331" y="1555"/>
      <point x="302" y="1537"/>
      <point x="273" y="1515" type="curve" smooth="yes"/>
      <point x="244" y="1493"/>
      <point x="220" y="1468"/>
      <point x="201" y="1440" type="curve" smooth="yes"/>
      <point x="182" y="1412"/>
      <point x="167" y="1378"/>
      <point x="155" y="1338" type="curve" smooth="yes"/>
      <point x="143" y="1298"/>
      <point x="137" y="1254"/>
      <point x="137" y="1206" type="curve" smooth="yes"/>
      <point x="138" y="1118"/>
      <point x="139" y="1073"/>
      <point x="139" y="1071" type="curve"/>
      <point x="56" y="1071" type="line"/>
      <point x="56" y="760" type="line"/>
      <point x="140" y="760" type="line"/>
      <point x="140" y="298" type="line"/>
      <point x="56" y="298" type="line"/>
      <point x="56" y="-1" type="line"/>
      <point x="736" y="-1" type="line"/>
      <point x="736" y="298" type="line"/>
      <point x="626" y="298" type="line"/>
      <point x="626" y="760" type="line"/>
      <point x="798" y="760" type="line"/>
      <point x="798" y="1071" type="line"/>
      <point x="621" y="1071" type="line"/>
      <point x="621" y="1175" type="line" smooth="yes"/>
      <point x="621" y="1196"/>
      <point x="627" y="1218"/>
      <point x="639" y="1241" type="curve" smooth="yes"/>
      <point x="651" y="1264"/>
      <point x="661" y="1279"/>
      <point x="670" y="1285" type="curve" smooth="yes"/>
      <point x="679" y="1291"/>
      <point x="703" y="1297"/>
      <point x="743" y="1304" type="curve" smooth="yes"/>
      <point x="783" y="1311"/>
      <point x="819" y="1314"/>
      <point x="851" y="1314" type="curve" smooth="yes"/>
      <point x="1019" y="1314" type="line"/>
      <point x="1019" y="303" type="line"/>
      <point x="945" y="303" type="line"/>
      <point x="945" y="-3" type="line"/>
      <point x="1592" y="-3" type="line"/>
      <point x="1592" y="303" type="line"/>
      <point x="1514" y="303" type="line"/>
    </contour>
  </outline>
</glyph>
<glyph name="Delta" format="1">
  <advance width="1160"/>
  <outline>
    <contour>
      <point x="40" y="55" type="line"/>
      <point x="40" y="0" type="line"/>
      <point x="1123" y="0" type="line"/>
      <point x="1123" y="55" type="line"/>
      <point x="833" y="1238" type="line"/>
      <point x="360" y="1238" type="line"/>
    </contour>
    <contour>
      <point x="439" y="205" type="line"/>
      <point x="648" y="1080" type="line"/>
      <point x="819" y="205" type="line"/>
    </contour>
  </outline>
</glyph>
<glyph name="foursuperior" format="1">
  <advance width="820"/>
  <outline>
    <contour>
      <point x="635" y="455" type="line"/>
      <point x="635" y="532" type="line"/>
      <point x="769" y="532" type="line"/>
      <point x="769" y="683" type="line"/>
      <point x="636" y="682" type="line"/>
      <point x="636" y="1073" type="line"/>
      <point x="378" y="1074" type="line"/>
      <point x="54" y="690" type="line"/>
      <point x="54" y="532" type="line"/>
      <point x="367" y="532" type="line"/>
      <point x="367" y="455" type="line"/>
      <point x="293" y="455" type="line"/>
      <point x="293" y="286" type="line"/>
      <point x="707" y="286" type="line"/>
      <point x="707" y="455" type="line"/>
    </contour>
    <contour>
      <point x="367" y="683" type="line"/>
      <point x="256" y="684" type="line"/>
      <point x="367" y="821" type="line"/>
    </contour>
  </outline>
</glyph>
<glyph name="lc_xheight_stem" format="1">
  <advance width="1560"/>
  <outline>
    <contour>
      <point x="105" y="0" type="line"/>
      <point x="729" y="0" type="line"/>
      <point x="729" y="288" type="line"/>
      <point x="728" y="288" type="line"/>
      <point x="728" y="1091" type="line"/>
      <point x="105" y="1032" type="line"/>
      <point x="105" y="761" type="line"/>
      <point x="249" y="761" type="line"/>
      <point x="249" y="288" type="line"/>
      <point x="105" y="288" type="line"/>
    </contour>
  </outline>
</glyph>
